<?xml version="1.0" encoding="UTF-8"?>
<svg id="Layer_1" xmlns="http://www.w3.org/2000/svg" version="1.1" viewBox="0 0 1080 1080">
  <!-- Generator: Adobe Illustrator 30.0.0, SVG Export Plug-In . SVG Version: 2.1.1 Build 123)  -->
  <defs>
    <style>
      .st0 {
        fill: none;
        stroke: #214d7f;
        stroke-miterlimit: 10;
      }

      .st1 {
        fill: #fff;
      }
    </style>
  </defs>
  <path class="st1" d="M750.3,733.8c-36.6-9.9-72.2-23.5-105.7-40.4-32.7-16.5-63.9-36.3-92.7-58.8-28.3-22.2-54.6-47.3-78.2-74.5-23.3-27-44.2-56.5-62-87.5-17.8-31-32.7-63.9-44.2-97.7-11.7-34.1-20.1-69.5-24.9-105.1-5-36.3-6.3-73.2-4-109.8,2.4-37.5,8.6-75.1,18.5-111.7,9.9-36.6,23.5-72.2,40.4-105.7,16.5-32.7,36.3-63.9,58.8-92.7,22.2-28.3,47.3-54.6,74.5-78.2,27-23.3,56.5-44.2,87.5-62,31-17.8,63.9-32.7,97.7-44.2,34.1-11.7,69.5-20.1,105.1-24.9,36.3-5,73.2-6.3,109.8-4,37.5,2.4,75.1,8.6,111.7,18.5,36.6,9.9,72.2,23.5,105.7,40.4,32.7,16.5,63.9,36.3,92.7,58.8,28.3,22.2,54.6,47.3,78.2,74.5,23.3,27,44.2,56.5,62,87.5,17.8,31,32.7,63.9,44.2,97.7,11.7,34.1,20.1,69.5,24.9,105.1,5,36.3,6.3,73.2,4,109.8-2.4,37.5-8.6,75.1-18.5,111.7-9.9,36.6-23.5,72.2-40.4,105.7-16.5,32.7-36.3,63.9-58.8,92.7-22.2,28.3-47.3,54.6-74.5,78.2-27,23.3-56.5,44.2-87.5,62-31,17.8-63.9,32.7-97.7,44.2-34.1,11.7-69.5,20.1-105.1,24.9-36.3,5-73.2,6.3-109.8,4-37.5-2.4-75.1-8.6-111.7-18.5ZM1041.6-341.9C745.9-422,440.1-246.6,360.1,49.1c-80.1,295.7,95.4,601.5,391.1,681.5,295.7,80.1,601.5-95.4,681.5-391.1,80.1-295.7-95.4-601.5-391.1-681.5ZM775,642.7c-30.4-8.2-60-19.5-87.9-33.6-27.2-13.7-53.1-30.1-77.1-48.9-23.5-18.4-45.4-39.3-65-62-19.4-22.5-36.7-46.9-51.5-72.7-14.8-25.8-27.2-53.1-36.8-81.2-9.7-28.4-16.7-57.7-20.7-87.3-4.1-30.2-5.2-60.9-3.3-91.2,2-31.2,7.1-62.4,15.4-92.8,8.2-30.4,19.5-60,33.6-87.9,13.7-27.2,30.1-53.1,48.9-77.1,18.4-23.5,39.3-45.4,62-65,22.5-19.4,46.9-36.7,72.7-51.5,25.8-14.8,53.1-27.2,81.2-36.8,28.4-9.7,57.7-16.7,87.3-20.7,30.2-4.1,60.9-5.2,91.2-3.3,31.2,2,62.4,7.1,92.8,15.4,30.4,8.2,60,19.5,87.9,33.6,27.2,13.7,53.1,30.1,77.1,48.9,23.5,18.4,45.4,39.3,65,62,19.4,22.5,36.7,46.9,51.5,72.7,14.8,25.8,27.2,53.1,36.8,81.2,9.7,28.4,16.7,57.7,20.7,87.3,4.1,30.2,5.2,60.9,3.3,91.2-2,31.2-7.1,62.4-15.4,92.8-8.2,30.4-19.5,60-33.6,87.9-13.7,27.2-30.1,53.1-48.9,77.1-18.4,23.5-39.3,45.4-62,65-22.5,19.4-46.9,36.7-72.7,51.5-25.8,14.8-53.1,27.2-81.2,36.8-28.4,9.7-57.7,16.7-87.3,20.7-30.2,4.1-60.9,5.2-91.2,3.3-31.2-2-62.4-7.1-92.8-15.4ZM1016.9-250.9c-245.5-66.5-499.3,79.2-565.8,324.7-66.5,245.5,79.2,499.3,324.7,565.8,245.5,66.5,499.3-79.2,565.8-324.7,66.5-245.5-79.2-499.3-324.7-565.8ZM1461.7,381.1c0,0,0,.2,0,.3,0-.1,0-.2,0-.3ZM1461.7,381.1c0-.1,0-.2,0-.3,0,0,0,.2,0,.3ZM1461.4,382.1c0-.1,0-.2.1-.3,0,0,0,.2-.1.3ZM1461.8,380.8c.1-.3.1-.4,0,0h0ZM1461.4,382.1c0,.1,0,.2-.1.4,0-.1,0-.3.1-.4ZM1534.5,221.8c0-.1,0-.1,0,0h0ZM1533,246.1c0,0,0,0,0,0h0ZM1516.6,346c1.4-5.7,2.7-11.4,4-17.2,1.2-5.7,2.4-11.5,3.5-17.3,1.1-5.8,2.1-11.5,3-17.3.9-5.8,1.8-11.6,2.5-17.4.8-5.8,1.4-11.6,2.1-17.4.6-5.8,1.1-11.6,1.6-17.4.2-2.8.4-5.6.6-8.3-.4,5.9-.7,11.9-.8,12.4,0-.4.2-3.8.8-12.4,0,0,0,0,0,0,.4-5.7.6-11.3.8-17,.2-5.7.3-11.4.4-17.1,0-5.7,0-11.4,0-17.1-.1-5.7-.3-11.4-.5-17.1-.3-5.7-.6-11.4-1-17-.4-5.7-.9-11.3-1.5-17-.6-5.7-1.2-11.3-1.9-16.9-.7-5.6-1.5-11.1-2.3-16.6-.8-5.5-1.8-11-2.8-16.5-1-5.5-2.1-10.9-3.2-16.4-1.1-5.5-2.3-10.9-3.6-16.3-1.3-5.4-2.6-10.8-4-16.2-1.4-5.4-2.9-10.8-4.5-16.1-1.6-5.4-3.2-10.7-4.9-16-1.7-5.3-3.5-10.6-5.3-15.8-1.8-5.2-3.7-10.4-5.6-15.5-1.9-5.1-4-10.3-6-15.4-2.1-5.1-4.2-10.2-6.4-15.2-2.2-5-4.5-10.1-6.8-15.1s-4.7-9.9-7.2-14.9c-2.5-4.9-5-9.8-7.6-14.7-2.6-4.9-5.2-9.7-8-14.5-2.7-4.8-5.5-9.5-8.3-14.3-2.8-4.7-5.7-9.4-8.7-14-3-4.6-6-9.3-9.1-13.8-3.1-4.6-6.2-9.1-9.4-13.6-3.2-4.5-6.5-8.9-9.8-13.3-3.3-4.4-6.7-8.8-10.1-13.1-3.4-4.3-6.9-8.6-10.4-12.8-3.5-4.2-7.1-8.4-10.8-12.6-3.7-4.2-7.4-8.3-11.2-12.4-3.8-4.1-7.6-8.1-11.5-12.1-3.9-4-7.9-7.9-11.9-11.8-4-3.9-8.1-7.7-12.2-11.5-4.1-3.8-8.3-7.5-12.4-11.2-4.2-3.7-8.4-7.3-12.7-10.8-4.3-3.5-8.6-7-13-10.5-4.5-3.5-9-7-13.6-10.3-4.6-3.4-9.2-6.7-13.8-10-4.7-3.3-9.4-6.5-14.1-9.6-4.7-3.1-9.5-6.2-14.4-9.2-4.8-3-9.7-6-14.6-8.8-4.9-2.9-9.9-5.7-14.8-8.4-5-2.7-10-5.4-15.1-8-5.1-2.6-10.3-5.2-15.5-7.7-5.3-2.5-10.5-5-15.9-7.4-5.3-2.4-10.7-4.7-16.1-6.9-5.4-2.2-10.8-4.4-16.3-6.5-5.5-2.1-11-4.1-16.5-6.1-5.5-2-11.1-3.8-16.7-5.6-5.6-1.8-11.2-3.5-16.8-5.2-5.6-1.7-11.3-3.2-17-4.7-5.7-1.5-11.4-2.9-17.1-4.3-5.7-1.3-11.4-2.6-17.2-3.8-5.7-1.2-11.5-2.3-17.3-3.3-5.8-1-11.6-2-17.3-2.8-5.8-.9-11.6-1.7-17.4-2.4-5.8-.7-11.6-1.3-17.4-1.9-5.8-.5-11.6-1-17.4-1.4-5.7-.4-11.4-.7-17.1-.9-5.7-.2-11.4-.4-17.1-.4-5.7,0-11.4,0-17.1,0-5.7,0-11.4.2-17.1.5-5.7.2-11.4.6-17.1.9-5.7.4-11.3.9-17,1.4-5.7.5-11.3,1.2-17,1.9-5.6.7-11.1,1.4-16.7,2.3-5.5.8-11,1.7-16.5,2.7-5.5,1-11,2-16.4,3.1-5.5,1.1-10.9,2.3-16.3,3.6-5.4,1.3-10.8,2.6-16.2,4-5.4,1.4-10.8,2.9-16.1,4.4-5.4,1.5-10.7,3.2-16,4.8-5.3,1.7-10.6,3.4-15.8,5.2-5.2,1.8-10.4,3.7-15.5,5.6-5.2,1.9-10.3,3.9-15.4,6-5.1,2.1-10.2,4.2-15.2,6.4-5.1,2.2-10.1,4.5-15.1,6.8-5,2.3-10,4.7-14.9,7.2-4.9,2.5-9.8,5-14.7,7.6-4.9,2.6-9.7,5.2-14.5,7.9-4.8,2.7-9.6,5.5-14.3,8.3-4.7,2.8-9.4,5.7-14.1,8.7-4.7,2.9-9.3,6-13.9,9-4.6,3.1-9.1,6.2-13.6,9.4-4.5,3.2-9,6.4-13.4,9.7-4.4,3.3-8.8,6.7-13.1,10.1-4.3,3.4-8.6,6.9-12.8,10.4-4.2,3.5-8.4,7.1-12.6,10.7-4.2,3.7-8.3,7.4-12.4,11.2-4.1,3.8-8.1,7.6-12.1,11.5-4,3.9-7.9,7.8-11.8,11.8-3.9,4-7.7,8-11.5,12.1-3.8,4.1-7.5,8.2-11.2,12.4-3.7,4.2-7.3,8.4-10.9,12.7-3.6,4.3-7.1,8.6-10.5,13-3.5,4.4-7,8.9-10.3,13.5-3.4,4.6-6.7,9.2-10,13.8-3.3,4.7-6.5,9.3-9.6,14.1-3.2,4.7-6.2,9.5-9.3,14.3-3,4.8-6,9.7-8.9,14.6-2.9,4.9-5.7,9.8-8.5,14.8-2.8,5-5.5,10-8.1,15-2.7,5.1-5.2,10.2-7.8,15.4-2.5,5.2-5,10.5-7.4,15.8-2.4,5.3-4.7,10.7-7,16.1-2.3,5.4-4.5,10.8-6.6,16.3-2.1,5.5-4.2,11-6.1,16.5-2,5.5-3.9,11.1-5.7,16.7-1.8,5.6-3.6,11.2-5.2,16.8-1.7,5.6-3.3,11.3-4.8,17-1.5,5.7-3,11.4-4.3,17.1-1.4,5.7-2.6,11.4-3.8,17.2-1.2,5.7-2.3,11.5-3.4,17.3-1,5.8-2,11.5-2.9,17.3-.9,5.8-1.7,11.6-2.4,17.4-.7,5.8-1.4,11.6-1.9,17.4-.6,5.8-1,11.6-1.5,17.4-.4,5.7-.7,11.4-1,17.1-.2,5.7-.4,11.4-.5,17.1,0,5.7,0,11.4,0,17.1,0,5.7.2,11.4.4,17.1.2,5.7.5,11.4.9,17.1.4,5.7.8,11.4,1.3,17,.5,5.7,1.1,11.3,1.8,17,.7,5.6,1.4,11.2,2.2,16.7.8,5.5,1.7,11,2.6,16.5,1,5.5,2,11,3.1,16.4,1.1,5.5,2.3,10.9,3.5,16.3,1.2,5.4,2.6,10.9,3.9,16.3,1.4,5.4,2.8,10.8,4.4,16.1,1.5,5.4,3.1,10.7,4.8,16,1.7,5.3,3.4,10.6,5.2,15.9,1.8,5.2,3.6,10.4,5.5,15.5,1.9,5.2,3.9,10.3,5.9,15.4,2.1,5.1,4.2,10.2,6.3,15.3,2.2,5.1,4.4,10.1,6.7,15.1,2.3,5,4.7,10,7.1,14.9,2.4,4.9,4.9,9.9,7.5,14.7,2.6,4.9,5.2,9.7,7.9,14.5,2.7,4.8,5.4,9.6,8.2,14.3,2.8,4.7,5.7,9.4,8.6,14.1,2.9,4.7,5.9,9.3,9,13.9,3.1,4.6,6.2,9.1,9.3,13.6,3.2,4.5,6.4,9,9.7,13.4,3.3,4.4,6.6,8.8,10,13.1,3.4,4.3,6.8,8.6,10.3,12.9,3.5,4.2,7.1,8.5,10.7,12.6,3.7,4.2,7.4,8.4,11.1,12.5,3.8,4.1,7.6,8.2,11.5,12.2,3.9,4,7.8,8,11.8,11.9,4,3.9,8,7.8,12.1,11.6,4.1,3.8,8.2,7.5,12.4,11.2,4.2,3.7,8.4,7.3,12.7,10.9,4.3,3.6,8.6,7.1,12.9,10.5,4.4,3.5,8.9,7,13.4,10.4,4.5,3.4,9.1,6.8,13.8,10.1,4.6,3.3,9.3,6.5,14.1,9.7,4.7,3.2,9.5,6.3,14.3,9.3,4.8,3,9.7,6,14.6,8.9,4.9,2.9,9.8,5.8,14.8,8.5,5,2.8,10,5.5,15,8.1,5.1,2.7,10.2,5.3,15.4,7.8,5.2,2.6,10.5,5.1,15.8,7.5,5.3,2.4,10.7,4.8,16,7.1,5.4,2.3,10.8,4.5,16.3,6.6,5.5,2.1,10.9,4.2,16.5,6.2,5.5,2,11.1,3.9,16.6,5.7,5.6,1.8,11.2,3.6,16.8,5.3,5.6,1.7,11.3,3.3,16.9,4.8,5.7,1.5,11.4,3,17.1,4.4,5.7,1.4,11.4,2.7,17.2,3.9,5.7,1.2,11.5,2.4,17.3,3.4,5.8,1.1,11.5,2,17.3,3,5.8.9,11.6,1.7,17.4,2.5,5.8.7,11.6,1.4,17.4,2,5.8.6,11.6,1.1,17.4,1.5,5.7.4,11.4.8,17.2,1,5.7.3,11.4.4,17.1.5,5.7.1,11.4.1,17.1,0,5.7,0,11.4-.2,17.1-.4,5.7-.2,11.4-.5,17.1-.8,5.7-.4,11.4-.8,17-1.3,5.7-.5,11.3-1.1,17-1.7,5.6-.7,11.2-1.4,16.8-2.2,5.5-.8,11-1.7,16.5-2.6,5.5-.9,11-1.9,16.4-3,5.5-1.1,10.9-2.2,16.4-3.5,5.4-1.2,10.9-2.5,16.3-3.9,5.4-1.4,10.8-2.8,16.2-4.3,5.4-1.5,10.7-3.1,16-4.7,5.3-1.6,10.6-3.4,15.9-5.2,5.2-1.8,10.4-3.6,15.6-5.5,5.2-1.9,10.3-3.9,15.4-5.9,5.1-2,10.2-4.1,15.3-6.3,5.1-2.2,10.1-4.4,15.1-6.7,5-2.3,10-4.7,14.9-7.1,4.9-2.4,9.9-4.9,14.8-7.5,4.9-2.5,9.7-5.2,14.5-7.8,4.8-2.7,9.6-5.4,14.3-8.2,4.7-2.8,9.5-5.7,14.1-8.6,4.7-2.9,9.3-5.9,13.9-8.9,4.6-3,9.2-6.1,13.7-9.3,4.5-3.2,9-6.4,13.4-9.6,4.4-3.3,8.8-6.6,13.2-10,4.3-3.4,8.6-6.8,12.9-10.3,4.3-3.5,8.5-7,12.6-10.6,4.2-3.6,8.4-7.3,12.5-11.1,4.1-3.8,8.2-7.6,12.2-11.4,4-3.9,8-7.8,11.9-11.7,3.9-4,7.8-8,11.6-12.1,3.8-4.1,7.6-8.2,11.3-12.3,3.7-4.2,7.3-8.4,10.9-12.6,3.6-4.3,7.1-8.6,10.6-12.9,3.5-4.4,7-8.9,10.4-13.3,3.4-4.5,6.8-9.1,10.1-13.7,3.3-4.6,6.6-9.3,9.7-14,3.2-4.7,6.3-9.5,9.4-14.3,3.1-4.8,6-9.6,9-14.5,2.9-4.9,5.8-9.8,8.6-14.8,2.8-5,5.5-9.9,8.2-15,2.7-5.1,5.3-10.2,7.8-15.3,2.6-5.2,5.1-10.5,7.5-15.8,2.4-5.3,4.8-10.6,7.1-16,2.3-5.4,4.5-10.8,6.7-16.2,2.2-5.4,4.2-10.9,6.2-16.4,2-5.5,3.9-11.1,5.8-16.6,1.9-5.6,3.6-11.2,5.3-16.8,1.7-5.6,3.3-11.3,4.9-16.9,1.6-5.7,3-11.3,4.4-17.1ZM1515.8,335.7c-1.3,5.8-2.7,11.6-4.2,17.3-.5,1.9-1,3.8-1.5,5.7l-38.5-10.4c3.4-12.6,6.3-25.1,8.8-37.7l39.2,7.7c-1.2,5.8-2.4,11.6-3.7,17.3ZM1520.1,315.2l-39.2-7.7c2.1-10.8,3.9-21.6,5.4-32.4l39.6,5.3c-1.6,11.6-3.5,23.2-5.8,34.8ZM1468.4,347.5l-17-4.6c12.7-47.5,19.3-96.2,19.6-144.7h17.6c0,3.8,0,7.6-.2,11.4-.1,5.8-.4,11.7-.7,17.5-.1,1.9-.2,3.8-.3,5.7,0,1.1-.1,2.1-.2,3.2-.4,5.9-.9,11.7-1.5,17.6-.6,5.9-1.3,11.7-2,17.6-.8,5.9-1.6,11.7-2.6,17.5-.9,5.8-2,11.6-3.1,17.4-.3,1.3-.5,2.7-.8,4-.2,1.4-.6,2.9-.9,4.3-.3,1.5-.6,2.9-.9,4.4-.6,2.9-1.3,5.8-1.9,8.7-1.3,5.7-2.7,11.4-4.2,17.1-.3,1-.5,1.9-.8,3ZM1526.3,277.3l-39.6-5.3c1.6-11.9,2.8-23.9,3.6-35.8l39.8,2.7c-.9,12.8-2.2,25.6-3.9,38.4ZM1530.4,235.7l-39.8-2.7c.4-5.9.7-11.8.9-17.7.2-5.7.3-11.4.4-17l39.9.2c0,12.4-.5,24.8-1.3,37.3ZM1531.7,195.2l-39.9-.2c0-5,0-10.1-.2-15.1-.1-5.9-.4-11.8-.7-17.6-.1-1.9-.2-3.8-.3-5.7l39.7-2.6c.9,13.7,1.3,27.4,1.3,41.2ZM1530.2,150.8l-39.7,2.6c-.7-10.8-1.8-21.6-3.1-32.4l39.5-5c1.4,11.5,2.6,23.1,3.4,34.8ZM1526.4,112.9l-39.5,5c-1.7-12.8-3.7-25.5-6.2-38.2l39-7.7c2.7,13.5,4.9,27.2,6.7,40.9ZM1519.1,68.8l-39,7.7c-1.2-5.7-2.4-11.4-3.7-17.1-1.2-5-2.4-9.9-3.7-14.8l38.4-10.1c3,11.3,5.6,22.8,8,34.3ZM1510.3,31.5l-38.4,10.1c-1.4-5.3-2.9-10.6-4.5-15.9-1.7-5.6-3.4-11.1-5.2-16.7-.2-.6-.4-1.3-.6-1.9l37.6-12.5c4.1,12.2,7.8,24.5,11.1,37ZM1445.5-27.4c.6,1.3,1.1,2.6,1.6,4,.5,1.3,1.1,2.7,1.6,4,1.1,2.7,2.1,5.5,3.1,8.2,2,5.5,4,11.1,5.9,16.6.3.9.6,1.7.9,2.6,1.8,5.6,3.6,11.1,5.3,16.7,1.7,5.6,3.3,11.2,4.8,16.9,0,.2.1.4.2.7l-17,4.5c-12.8-48.2-31.9-94.4-56.6-137.6l15.3-8.8c2.4,4.1,4.7,8.2,6.9,12.4,2.8,5.2,5.5,10.3,8.1,15.6.6,1.2,1.2,2.4,1.8,3.6,0,0,0,0,0,0,2.6,5.3,5.1,10.6,7.6,15.9,2.4,5.3,4.8,10.7,7.1,16.1.8,1.9,1.6,3.8,2.4,5.7h0c.4,1,.8,2,1.2,2.9ZM1498.2-8.5l-37.6,12.5c-3.7-11-7.7-21.8-12.1-32.6l36.7-14.9c4.7,11.5,9,23.2,13,34.9ZM1467.1-84c6,12.3,11.7,24.9,16.9,37.6l-36.7,14.9c-4.9-11.9-10.1-23.6-15.8-35.1l35.6-17.4ZM1465.7-86.9l-35.6,17.4c-2.6-5.2-5.2-10.4-8-15.5-2.7-5.1-5.5-10.2-8.4-15.3-.2-.3-.4-.7-.6-1l34.4-19.7c6.4,11.2,12.4,22.5,18.2,34.1ZM1446-123.7l-34.4,19.7c-2.2-3.8-4.4-7.5-6.7-11.2-3-4.9-6.1-9.8-9.2-14.7-1.5-2.3-3-4.6-4.5-6.9l32.9-22.1c7.7,11.5,15,23.2,21.9,35.2ZM1422.3-161.5l-32.9,22.1c-6.1-9.1-12.5-17.9-19.1-26.6l31.5-24.1c7.1,9.3,13.9,18.9,20.5,28.6ZM1375.5-222.5c8.4,9.7,16.6,19.7,24.4,29.9l-31.5,24.1c-7.3-9.5-14.9-18.8-22.7-27.9l29.9-26.1ZM1373.4-224.9l-29.9,26.1c-3.8-4.4-7.7-8.7-11.7-13-3.9-4.2-7.9-8.4-11.9-12.5l28.2-27.9c8.7,8.9,17.2,18,25.4,27.3ZM1315.8-282.7c10.3,9.1,20.3,18.5,30,28.2l-28.2,27.9c-3.4-3.4-6.9-6.8-10.4-10.2-4.2-4-8.5-8-12.8-11.9-1.6-1.4-3.2-2.9-4.8-4.3l26.2-29.9ZM1315.3-224.3l-12.5,12.4c-34.7-34.7-73.6-64.8-115.6-89.4l8.9-15.2c4,2.3,8,4.7,11.9,7.1,5,3.1,9.9,6.2,14.7,9.4.2.1.3.2.5.3.1,0,.3.3.5.3.9.6,1.8,1.2,2.6,1.8,4.8,3.2,9.6,6.5,14.3,9.9,4.8,3.4,9.5,6.9,14.1,10.4.9.7,1.8,1.4,2.7,2.1,4.7,3.6,9.3,7.3,13.9,11,4.5,3.7,9,7.5,13.4,11.3.9.8,1.7,1.5,2.6,2.3,4.4,3.9,8.7,7.8,13,11.8,4.3,4,8.5,8.1,12.7,12.2.7.7,1.4,1.4,2.1,2.1ZM1313.4-284.8l-26.2,29.9c-8.2-7.1-16.6-14-25.1-20.7l24.4-31.4c9.2,7.2,18.2,14.6,26.9,22.2ZM1283.9-309s0,0,0,0c0,0,0,0,0,0l-24.4,31.4c-10.2-7.9-20.7-15.4-31.4-22.6l22.1-33.1c11.5,7.7,22.7,15.8,33.6,24.2ZM1247.7-335l-22.1,33.1c-4.9-3.3-9.9-6.4-14.9-9.5-4.3-2.7-8.6-5.2-12.9-7.8l20.1-34.4c10.1,6,20.1,12.2,29.8,18.6ZM1215.1-355.3l-20.1,34.4c-4.9-2.9-9.9-5.6-14.9-8.4-5.2-2.8-10.4-5.5-15.7-8.2-.3-.2-.7-.3-1-.5l17.8-35.7c11.5,5.8,22.9,11.9,33.9,18.3ZM1178.3-375l-17.8,35.7c-10.4-5.1-20.9-9.9-31.6-14.4l15.5-36.8c11.5,4.9,22.8,10,33.9,15.5ZM1103-406.4c13.1,4.5,25.9,9.4,38.5,14.6l-15.5,36.8c-11.8-4.9-23.8-9.5-35.9-13.6l12.9-37.8ZM1063-418.7c12.5,3.4,24.8,7.2,37,11.3l-12.9,37.8c-11.4-3.8-22.9-7.3-34.5-10.5l10.4-38.5ZM1060-419.5l-10.4,38.5c-12.4-3.3-25-6.2-37.6-8.7l7.7-39.2c13.4,2.7,26.9,5.8,40.3,9.4ZM1008.2-387.2c1,.2,2.1.4,3.1.6,0,0,0,0,0,0,0,0,0,0,0,0,2.9.5,5.8,1.2,8.7,1.8,2.9.6,5.8,1.3,8.6,1.9,5.7,1.3,11.4,2.7,17.1,4.2,1,.3,1.9.5,2.9.8l-4.6,17c-47.4-12.6-95.9-19.1-144.4-19.4v-17.6c2.9,0,5.8,0,8.6.1,5.9.1,11.7.3,17.6.6,5.9.3,11.7.7,17.6,1.2,5.9.5,11.8,1,17.6,1.7,3.9.4,7.9,1,11.8,1.4,5.9.8,11.8,1.6,17.6,2.6,5.8.9,11.7,2,17.5,3.1,0,0,.1,0,.2,0ZM1016.6-429.5l-7.7,39.2c-10.7-2.1-21.5-3.8-32.3-5.3l5.3-39.6c11.6,1.6,23.1,3.5,34.7,5.7ZM978.7-435.6s0,0,0,0c0,0,0,0,0,0l-5.3,39.6c-11.9-1.6-23.8-2.8-35.7-3.6l2.7-39.8c12.8.9,25.6,2.2,38.4,3.9ZM937.2-439.7l-2.7,39.8c-5.9-.4-11.8-.7-17.7-.9-5.7-.2-11.3-.3-17-.3l.2-39.9c12.4,0,24.8.5,37.2,1.3ZM896.8-441l-.2,39.9c-5.1,0-10.1,0-15.2.2-5.9.1-11.8.4-17.6.7-1.9.1-3.7.2-5.5.3l-2.6-39.7c13.6-.9,27.4-1.3,41.1-1.3ZM852.5-439.4l2.6,39.7c-10.8.7-21.6,1.8-32.4,3.1l-5-39.5c11.5-1.5,23.1-2.6,34.7-3.4ZM814.6-435.6s0,0-.1,0c0,0,0,0,.1,0l5,39.5c-12.7,1.7-25.4,3.7-38.1,6.2l-7.7-39c13.5-2.7,27.1-4.9,40.8-6.7ZM770.6-428.3l7.7,39c-5.7,1.2-11.4,2.4-17.1,3.7-4.9,1.2-9.9,2.4-14.8,3.7l-10.1-38.4c11.3-3,22.7-5.6,34.2-8ZM748.7-361c-47.9,12.8-94.1,31.8-137.3,56.5l-8.8-15.3c2.4-1.3,4.7-2.7,7.1-4,5.2-2.9,10.4-5.6,15.6-8.3,2.9-1.5,5.9-3,8.8-4.4h0c1-.5,1.9-.9,2.9-1.4.7-.3,1.3-.6,1.9-.9.7-.3,1.3-.6,2-1,1.3-.6,2.7-1.3,4-1.9,2.7-1.3,5.3-2.5,8-3.7,5.3-2.4,10.7-4.8,16.1-7,5.4-2.3,10.9-4.4,16.4-6.6,5.5-2.1,11-4.1,16.5-6,2.7-.9,5.4-1.9,8.1-2.8,2.8-1,5.6-1.8,8.4-2.7,2.8-.9,5.5-1.7,8.3-2.6,5.6-1.7,11.3-3.3,16.9-4.8.2,0,.3,0,.5-.1l4.5,17ZM733.3-419.5l10.1,38.4c-5.3,1.4-10.7,2.9-16,4.5-5.6,1.7-11.1,3.4-16.7,5.2-.6.2-1.2.4-1.7.6l-12.5-37.6c12.2-4.1,24.5-7.7,36.9-11.1ZM693.4-407.4l12.5,37.6c-10.9,3.7-21.8,7.7-32.5,12.1l-14.9-36.8c11.5-4.7,23.1-9,34.9-13ZM655.6-393.3l14.9,36.8c-11.8,4.9-23.5,10.1-35,15.7l-17.4-35.6c12.3-6,24.8-11.6,37.5-16.8ZM615.3-375l17.4,35.6c-5.2,2.6-10.4,5.2-15.5,7.9-5.1,2.7-10.2,5.5-15.3,8.4-.3.2-.6.4-1,.6l-19.7-34.4c11.1-6.4,22.5-12.4,34-18.1ZM578.5-355.3l19.7,34.4c-3.8,2.2-7.5,4.4-11.3,6.7-4.9,3-9.9,6.1-14.7,9.2-2.3,1.5-4.5,2.9-6.7,4.4l-22.1-32.9c11.5-7.7,23.2-14.9,35.1-21.8ZM540.8-331.7l22.1,32.9c-9,6.1-17.9,12.5-26.6,19l-24.1-31.6c9.3-7.1,18.9-13.9,28.6-20.4ZM509.7-309.4l24.1,31.6c-9.5,7.3-18.8,14.8-27.8,22.7l-26.1-29.9c9.7-8.4,19.7-16.5,29.8-24.3ZM477.4-282.9s0,0-.1.1c0,0,0,0,.1-.1l26.1,29.9c-4.4,3.8-8.7,7.7-13,11.7-4.2,3.9-8.3,7.8-12.4,11.9l-28-28.2c8.8-8.7,17.9-17.1,27.2-25.3ZM490.5-212.4c-34.7,34.6-64.8,73.4-89.4,115.3l-15.2-8.9c1.9-3.2,3.7-6.3,5.6-9.4,3.1-5,6.2-9.9,9.4-14.8.7-1.1,1.4-2.2,2.2-3.3,2.4-3.5,4.7-7.1,7.2-10.6,0,0,0,0,0,0,.9-1.3,1.8-2.6,2.8-3.9,0-.1.2-.3.3-.4.1-.1.2-.3.3-.4.2-.3.4-.6.7-.9.4-.6.9-1.2,1.3-1.8.8-1.2,1.7-2.4,2.6-3.5,1.7-2.4,3.5-4.7,5.2-7.1,1.3-1.7,2.6-3.4,3.9-5.2.6-.8,1.3-1.7,2-2.5,1.8-2.3,3.6-4.6,5.5-6.9,1.8-2.3,3.7-4.6,5.6-6.8,3.8-4.5,7.6-9,11.5-13.4,0,0,0,0,.1-.1,3.9-4.4,7.9-8.8,11.9-13.1,4.1-4.3,8.2-8.6,12.3-12.8.6-.6,1.3-1.3,1.9-1.9l12.4,12.5ZM447.9-255.4l28,28.2c-3.5,3.4-6.9,6.9-10.3,10.5-4,4.2-8,8.5-11.9,12.8-1.4,1.5-2.8,3.1-4.1,4.6l-29.9-26.2c9.1-10.3,18.5-20.3,28.2-29.9ZM417.6-223.1l29.9,26.2c-7.1,8.2-14,16.5-20.7,25l-31.4-24.4c7.2-9.2,14.6-18.1,22.2-26.9ZM393.4-193.7l31.4,24.4c-7.9,10.2-15.4,20.6-22.6,31.3l-33.1-22.2c7.7-11.5,15.8-22.6,24.2-33.5ZM367.4-157.6l33.1,22.2c-3.3,4.9-6.5,9.9-9.6,14.9-2.6,4.3-5.2,8.5-7.8,12.9l-34.4-20.1c6-10.1,12.2-20,18.7-29.8ZM321.7,189.8h-17.6c0-2.9,0-5.7.1-8.5.1-5.9.4-11.8.7-17.6,0-1.4.2-2.8.2-4.2,0-.7,0-1.4.1-2.1,0-.7,0-1.4.1-2.1,0-1.1.1-2.1.2-3.2h0c.4-5.9.9-11.7,1.5-17.6.6-5.9,1.3-11.8,2.1-17.6.2-1.1.3-2.3.5-3.4.8-5.9,1.7-11.7,2.7-17.6.8-4.8,1.7-9.7,2.6-14.5.2-1,.4-2.1.6-3.1,1.2-5.8,2.4-11.6,3.8-17.3,1.3-5.7,2.7-11.3,4.2-16.9.3-1,.5-1.9.8-3l17,4.6c-12.7,47.3-19.3,95.9-19.7,144.3ZM347.2-125.1l34.4,20.2c-2.9,4.9-5.7,9.9-8.4,15-2.8,5.2-5.5,10.4-8.2,15.7-.2.3-.3.6-.5.9l-35.7-17.9c5.8-11.5,11.9-22.8,18.3-33.9ZM327.4-88.4l35.7,17.9c-5.1,10.3-10,20.8-14.5,31.5l-36.8-15.6c4.9-11.5,10.1-22.7,15.5-33.8ZM310.6-51.6l36.8,15.6c-4.9,11.8-9.5,23.7-13.7,35.8l-37.8-13c4.5-13,9.4-25.9,14.7-38.4ZM294.9-10.2l37.8,13c-3.8,11.3-7.3,22.6-10.5,34.3l-38.6-10.4c3.4-12.6,7.2-24.8,11.3-36.8ZM282.8,29.7l38.6,10.4c-3.3,12.4-6.3,25-8.8,37.5l-39.2-7.7c2.7-13.4,5.8-26.8,9.4-40.3ZM272.7,73.1l39.2,7.7c-2.1,10.7-3.9,21.5-5.4,32.3l-39.6-5.3c1.6-11.5,3.5-23.1,5.8-34.6ZM266.5,110.9l39.6,5.3c-1.6,11.9-2.8,23.8-3.7,35.7l-39.8-2.7c.9-12.7,2.2-25.5,3.9-38.3ZM261,189.6c0-12.4.5-24.7,1.4-37.2l39.8,2.7c-.4,5.9-.7,11.8-.9,17.7-.2,5.7-.3,11.3-.4,17l-39.9-.2ZM261,192.7l39.9.2c0,5,0,10.1.1,15.1.1,5.9.4,11.7.7,17.6,0,1.9.2,3.7.3,5.6l-39.8,2.6c-.9-13.6-1.3-27.4-1.2-41.1ZM262.5,237l39.8-2.6c.7,10.8,1.8,21.6,3.1,32.3l-39.5,5c-1.4-11.5-2.5-23.1-3.3-34.7ZM266.2,274.9l39.5-5c1.6,12.7,3.7,25.4,6.2,38.1l-39,7.7c-2.6-13.5-4.9-27.1-6.6-40.8ZM273.5,318.9l39-7.7c1.2,5.7,2.4,11.4,3.7,17.1,1.1,4.9,2.4,9.8,3.6,14.7l-38.5,10.1c-2.9-11.3-5.6-22.7-7.9-34.2ZM293.1,393.1c-4-12.2-7.7-24.5-11-36.9l38.5-10.1c1.4,5.4,2.9,10.7,4.5,16,1.6,5.6,3.4,11.1,5.2,16.7.2.6.4,1.2.6,1.7l-37.7,12.6ZM323.7,345.3l17-4.5c12.7,48,31.6,94.2,56.2,137.4l-15.3,8.8c-1.8-3.2-3.7-6.5-5.4-9.7-2.8-5.1-5.5-10.3-8.1-15.5-1.5-3-3.1-6.1-4.6-9.2-2.5-5.3-5.1-10.6-7.5-16-2.4-5.4-4.7-10.7-7-16.2-.4-.9-.7-1.8-1.1-2.7-2.2-5.4-4.3-10.9-6.4-16.4-2.1-5.5-4-11-5.9-16.6-.1-.4-.3-.8-.4-1.2-.1-.4-.3-.8-.4-1.2-.3-1-.7-2-1-3-1.9-5.6-3.6-11.2-5.3-16.8-1.7-5.6-3.2-11.2-4.7-16.9,0-.2,0-.3-.1-.5ZM294.2,396.1l37.7-12.6c3.7,11,7.7,21.8,12,32.5l-36.8,14.9c-4.6-11.5-8.9-23.1-12.9-34.9ZM325,471.5c-6-12.3-11.6-24.9-16.8-37.6l36.8-14.9c4.8,11.8,10.1,23.5,15.6,35l-35.7,17.5ZM344.4,508.4c-6.3-11.2-12.4-22.5-18-34,0,0,0,0,0,0,0,0,0,0,0,0l35.7-17.5c2.6,5.2,5.2,10.4,7.9,15.5,2.7,5.1,5.5,10.2,8.4,15.3.2.3.4.6.5.9l-34.4,19.8ZM346,511.1l34.4-19.8c2.2,3.8,4.4,7.6,6.7,11.3,3,5,6.1,9.9,9.2,14.7,1.5,2.3,2.9,4.5,4.4,6.8l-33,22.1c-7.6-11.5-14.9-23.2-21.8-35.2ZM369.6,549l32.9-22.1c6.1,9.1,12.4,17.9,19,26.7l-31.6,24.1c-7.1-9.4-13.9-18.9-20.4-28.6ZM391.9,580.1l31.6-24.1c7.3,9.5,14.8,18.8,22.6,27.9l-29.9,26.1c-8.4-9.7-16.5-19.7-24.3-29.9ZM418.3,612.4l29.9-26.1c3.8,4.4,7.7,8.7,11.7,13,3.9,4.2,7.9,8.4,11.9,12.5l-28.2,28c-8.7-8.9-17.1-18-25.3-27.3ZM445.7,642l28.2-28c3.4,3.5,6.9,6.9,10.4,10.3,4.2,4,8.5,8,12.8,11.9,1.6,1.4,3.1,2.8,4.7,4.2l-26.2,29.9c-10.3-9.1-20.3-18.6-29.9-28.3ZM476.2,611.8l12.5-12.4c34.6,34.8,73.3,65,115.2,89.7l-8.9,15.2c-4-2.4-8-4.8-12-7.3-5-3.1-10-6.3-14.9-9.6-.2-.2-.4-.3-.7-.5-12.4-8.3-24.5-17-36.2-26.3,0,0,0,0,0,0-4.6-3.6-9.2-7.4-13.8-11.1-4.5-3.7-8.9-7.5-13.3-11.4-4.4-3.9-8.8-7.9-13.1-11.9-4.3-4.1-8.6-8.2-12.8-12.4-.7-.7-1.4-1.4-2.1-2.1ZM478,672.4l26.2-29.9c8.2,7.2,16.5,14.1,25,20.8l-24.4,31.4c-9.2-7.2-18.1-14.6-26.9-22.3ZM540.9,721c-11.5-7.8-22.6-15.9-33.5-24.3,0,0,0,0,.2.1,0,0-.1,0-.2-.1l24.4-31.4c10.2,7.9,20.6,15.4,31.3,22.6l-22.2,33.1ZM543.6,722.8l22.2-33.1c4.9,3.3,9.8,6.5,14.8,9.6,4.3,2.7,8.6,5.3,12.9,7.8l-20.1,34.4c-10.1-6-20.1-12.2-29.8-18.7ZM576.1,743.1l20.1-34.4c4.9,2.9,9.9,5.6,14.8,8.4,5.2,2.8,10.4,5.6,15.7,8.2.4.2.7.4,1.1.6l-17.8,35.7c-11.5-5.8-22.8-12-33.9-18.4ZM646.6,778.6c-11.5-4.9-22.7-10.1-33.8-15.6l17.8-35.7c10.4,5.1,20.9,10,31.5,14.5l-15.6,36.8ZM688,794.6c-13.1-4.5-25.9-9.4-38.5-14.7l15.6-36.8c11.8,5,23.8,9.5,35.9,13.7l-12.9,37.8ZM727.9,806.9c-12.5-3.4-24.8-7.2-36.8-11.3l12.9-37.8c11.3,3.9,22.8,7.4,34.3,10.6l-10.4,38.5ZM747,745.9l-.9-.2c-48.9-13.5-95.8-33-139.2-58.5-42.7-25-82-55.7-117.1-91.2-34.8-35.3-64.8-75-89.4-118-25.1-43.8-44.3-90.8-57-139.6-12.6-48-18.8-97.5-18.5-147.1.2-49.1,6.9-98.4,20-146.4v-.2c13.3-48.9,32.9-95.7,58.2-139,24.9-42.7,55.4-82.1,90.8-117.2,35.2-34.8,74.8-65,117.7-89.6,43.9-25.2,90.8-44.5,139.4-57.4,48.1-12.7,97.6-19,147.1-18.7,49.3.1,98.6,6.8,146.7,19.8l.9.2c48.7,13.2,95.3,32.6,138.5,57.8,42.8,24.9,82.3,55.4,117.5,90.8,34.9,35.2,65.1,74.8,89.9,117.9,25.3,43.8,44.6,90.8,57.5,139.7,12.7,48.3,19,97.9,18.8,147.4-.2,49.3-6.9,98.8-20,147v.2c-13.3,49-32.9,95.9-58.3,139.4-25,42.8-55.7,82.4-91.2,117.4-35.3,34.9-75,65.1-118.1,89.7-44,25.2-91.1,44.5-139.9,57.3-48.2,12.6-97.8,18.8-147.4,18.5-49-.3-98.1-7-146-20ZM1406.7,494.9c-1.8,3.1-3.7,6.3-5.6,9.4-3,5-6.2,9.9-9.4,14.8-1.4,2.1-2.7,4.1-4.1,6.1-3.2,4.9-6.6,9.6-10,14.4-1.3,1.8-2.5,3.5-3.8,5.3h0c-3.5,4.7-7,9.4-10.6,14-3.6,4.6-7.3,9.2-11,13.7-1.6,1.9-3.2,3.8-4.8,5.7-.8.9-1.6,1.8-2.4,2.8-.8.9-1.6,1.9-2.4,2.8-.7.8-1.4,1.6-2.1,2.4-3.9,4.4-7.8,8.7-11.9,13-4,4.3-8,8.4-12.2,12.6-.7.7-1.5,1.5-2.2,2.2l-12.4-12.5c34.8-34.6,65-73.5,89.7-115.6l15.2,8.9ZM1189.2,709c-3.2,1.8-6.5,3.6-9.7,5.4-5.1,2.8-10.3,5.5-15.5,8.2-5.2,2.6-10.5,5.2-15.8,7.7-5.3,2.5-10.6,4.9-16,7.2-5.1,2.2-10.2,4.4-15.3,6.4-1.3.6-2.7,1.1-4.1,1.6-1.4.5-2.8,1.1-4.2,1.6-2.7,1.1-5.5,2.1-8.3,3.1-5.5,2-11,4-16.6,5.8-.8.3-1.6.5-2.3.8-2.8.9-5.6,1.8-8.4,2.7-2.8.9-5.7,1.8-8.5,2.6-5.6,1.7-11.3,3.3-17,4.8-.1,0-.3,0-.4.1l-4.5-17c48-12.7,94.4-31.7,137.7-56.4l8.8,15.3ZM891.3,786.7c-3.8,0-7.6-.1-11.4-.2-5.9-.1-11.8-.4-17.6-.8-2.9-.2-5.7-.4-8.6-.6-5.9-.4-11.8-1-17.6-1.6-5.9-.6-11.8-1.3-17.6-2.1-.1,0-.2,0-.3,0-5.9-.8-11.8-1.7-17.7-2.7-5.8-1-11.6-2-17.3-3.1-1.1-.2-2.3-.4-3.4-.7-5.8-1.1-11.6-2.4-17.4-3.8-5.7-1.3-11.5-2.8-17.2-4.3-1-.3-1.9-.5-2.9-.8l4.6-17c47.5,12.8,96.1,19.5,144.6,19.9v17.6ZM730.9,807.7l10.4-38.5c12.5,3.4,25.1,6.3,37.7,8.9l-7.7,39.2c-13.5-2.7-26.9-5.9-40.4-9.5ZM774.4,817.9l7.7-39.2c10.7,2.1,21.5,3.9,32.3,5.4l-5.3,39.6c-11.6-1.6-23.1-3.5-34.7-5.8ZM812.3,824.1l5.3-39.6c11.9,1.6,23.8,2.8,35.8,3.7l-2.7,39.8c-12.8-.9-25.6-2.2-38.4-4ZM853.9,828.3l2.7-39.8c5.9.4,11.8.7,17.7.9,5.7.2,11.3.3,17,.4l-.2,39.9c-12.4-.1-24.8-.6-37.2-1.4ZM894.3,829.7l.2-39.9c5,0,10.1,0,15.1-.1,5.9-.1,11.7-.3,17.6-.6,1.9,0,3.8-.2,5.7-.3l2.6,39.8c-13.7.9-27.4,1.3-41.2,1.2ZM938.7,828.3l-2.6-39.7c10.8-.7,21.6-1.7,32.4-3.1l5,39.5c-11.5,1.4-23.1,2.5-34.8,3.3ZM976.6,824.6l-5-39.5c12.8-1.6,25.5-3.7,38.2-6.1l7.7,39c-13.5,2.7-27.2,4.9-40.9,6.6ZM1020.7,817.3l-7.7-39c5.7-1.1,11.4-2.4,17.1-3.7,5-1.1,9.9-2.4,14.8-3.6l10.1,38.4c-11.3,2.9-22.8,5.6-34.3,7.9ZM1058.1,808.6l-10.1-38.4c5.3-1.4,10.7-2.9,16-4.5,5.6-1.6,11.2-3.4,16.7-5.2.6-.2,1.2-.4,1.8-.6l12.5,37.6c-12.2,4-24.5,7.7-37,11ZM1098.1,796.6l-12.5-37.6c11-3.7,21.8-7.7,32.6-12l14.9,36.8c-11.5,4.6-23.2,8.9-35,12.9ZM1136,782.5l-14.9-36.8c11.9-4.8,23.6-10.1,35.1-15.7l17.4,35.6c-12.4,6-24.9,11.6-37.6,16.8ZM1176.5,764.3l-17.4-35.6c5.2-2.6,10.4-5.2,15.5-7.9,5.1-2.7,10.2-5.5,15.3-8.4.3-.2.7-.4,1-.6l19.8,34.4c-11.2,6.4-22.6,12.4-34.1,18.1ZM1213.3,744.6l-19.8-34.4c3.8-2.2,7.5-4.4,11.2-6.6,5-3,9.9-6.1,14.7-9.2,2.3-1.5,4.6-3,6.9-4.5l22.1,32.9c-11.5,7.7-23.3,14.9-35.2,21.8ZM1251.2,721l-22.1-32.9c9.1-6.1,18-12.5,26.7-19.1l24.1,31.6c-9.4,7.1-18.9,13.9-28.7,20.5ZM1282.4,698.6l-24.1-31.6c9.5-7.3,18.8-14.9,27.9-22.7l26.1,29.9c-9.7,8.4-19.7,16.5-30,24.3ZM1314.8,672.2l-26.1-29.9c4.4-3.8,8.7-7.7,13-11.7,4.2-3.9,8.4-7.9,12.5-12l28,28.2c-8.9,8.7-18,17.2-27.4,25.3ZM1344.4,644.6l-28-28.2c3.4-3.4,6.8-6.8,10.1-10.3,4-4.2,8-8.5,11.9-12.8,1.5-1.6,2.9-3.2,4.4-4.9l29.9,26.2c-9.1,10.3-18.6,20.3-28.3,30ZM1374.9,612.2c0,0,.2-.2.3-.4,0,.1-.2.2-.3.4ZM1374.8,612.2l-29.9-26.2c7.2-8.2,14.1-16.6,20.8-25.1l31.5,24.4c-7.2,9.2-14.6,18.2-22.3,26.9ZM1399.1,582.8l-31.5-24.4c7.9-10.2,15.4-20.7,22.6-31.4l33.1,22.2c-7.8,11.5-15.9,22.7-24.3,33.6ZM1425.2,546.5l-33.1-22.2c3.3-4.9,6.5-9.9,9.6-14.9,2.7-4.3,5.3-8.6,7.8-13l34.4,20.1c-6,10.2-12.2,20.1-18.7,29.8ZM1445.5,513.9l-34.4-20.1c2.8-4.9,5.6-9.8,8.3-14.8,2.8-5.2,5.6-10.4,8.2-15.7.2-.4.4-.8.6-1.2l35.7,17.9c-5.8,11.6-12,22.9-18.4,34ZM1465.3,477.1l-35.7-17.9c5.1-10.4,10-20.9,14.5-31.6l36.8,15.6c-4.9,11.5-10.1,22.8-15.6,33.9ZM1482.2,440.3l-36.8-15.6c4.9-11.8,9.5-23.8,13.7-35.9l37.8,12.9c-4.5,13.1-9.4,25.9-14.7,38.6ZM1506.8,370.3c-1.6,5.7-3.4,11.4-5.2,17-1.2,3.8-2.5,7.6-3.8,11.4l-37.8-12.9c3.8-11.4,7.3-22.7,10.5-34.4l38.6,10.4c-.8,2.8-1.6,5.6-2.4,8.5ZM1533.8,232.8c.1-1.8.2-3.3.3-4.6,0,1.4-.2,3-.3,4.6ZM1533.8,232.8c0,.3,0,.6,0,.8h0c0-.3,0-.6,0-.8ZM1534.1,228.2c.3-4.1.4-6,.4-6.4,0,.5-.2,3.1-.4,6.4ZM1461.6,381.5c0,.1,0,.2-.1.3,0-.1,0-.2.1-.3ZM1460.3,385.3c0,0,0,.1,0,.2,0,0,0-.1,0-.2ZM1460.2,385.5c0,0,0,.1,0,.2,0,0,0-.1,0-.2ZM1460.1,385.8s0,0,0,0c0,0,0,0,0,0ZM1460.5,384.7c0,.3-.2.5-.2.7,0-.2.2-.5.2-.7ZM1460.9,383.6c0,.3-.2.6-.3.8,0-.3.2-.6.3-.8ZM1460.9,383.6c0-.2.1-.4.2-.6,0,.2-.1.4-.2.6ZM991.9-201.7l7.7-28.4,3.8,1,8.8,26.3,6-22.3,3.7,1-7.7,28.4-3.9-1.1-8.9-26.3-6,22.3-3.5-.9ZM797.4,602.3l-3.6-.6c.2-1.5.1-2.7-.2-3.8-.4-1.1-1.1-2.1-2.3-3-1.1-.9-2.5-1.6-4.1-2-1.4-.4-2.7-.5-4-.4-1.2.1-2.2.5-2.9,1.1-.7.6-1.2,1.3-1.5,2.2-.2.9-.2,1.7.1,2.5.3.8,1,1.6,2.1,2.4.7.5,2.2,1.4,4.7,2.7,2.4,1.3,4.1,2.4,5,3.2,1.2,1.1,1.9,2.2,2.3,3.5.4,1.2.4,2.5,0,3.8-.4,1.4-1.2,2.7-2.3,3.7-1.1,1-2.6,1.6-4.3,1.9-1.7.2-3.5,0-5.5-.4-2.1-.6-3.9-1.4-5.3-2.5-1.4-1.1-2.4-2.4-2.9-4-.5-1.5-.6-3.2-.2-4.8l3.7.7c-.3,1.8,0,3.4.9,4.6.9,1.2,2.4,2.1,4.6,2.7,2.3.6,4,.6,5.3,0,1.3-.5,2-1.4,2.4-2.6.3-1,.1-2-.4-2.8-.5-.9-2.2-2-5.1-3.5-2.9-1.5-4.8-2.7-5.8-3.5-1.4-1.2-2.4-2.5-2.9-3.9s-.5-2.8,0-4.3c.4-1.5,1.2-2.8,2.4-3.9,1.2-1.1,2.7-1.8,4.6-2.1,1.8-.3,3.7-.2,5.8.4,2.6.7,4.6,1.6,6.1,2.9,1.5,1.2,2.6,2.7,3.2,4.5.6,1.8.6,3.6.2,5.5ZM1006.5-288.6c1.1-3.9,2.3-7,3.8-9.1,1.5-2.2,3.2-3.7,5.1-4.6,1.9-.9,4.1-1,6.5-.3,1.8.5,3.2,1.3,4.4,2.3,1.1,1.1,2,2.4,2.5,4,.5,1.6.8,3.4.7,5.5,0,2.1-.5,4.8-1.4,8-1.1,3.9-2.3,6.9-3.8,9.1-1.4,2.2-3.1,3.7-5.1,4.6-1.9.9-4.1,1-6.6.3-3.2-.9-5.4-2.7-6.6-5.5-1.4-3.4-1.3-8.1.4-14.4ZM1010.7-287.5c-1.5,5.4-1.8,9.2-1,11.4.8,2.1,2.1,3.5,4,4,1.9.5,3.7,0,5.5-1.4,1.8-1.5,3.4-4.9,4.9-10.3,1.5-5.5,1.8-9.3,1-11.4-.8-2.1-2.1-3.5-4-4-1.9-.5-3.6-.1-5.1,1.2-2,1.6-3.7,5.2-5.1,10.6ZM1035.1-292.8c.5-1.7,1.5-3,3-3.9,1.6-.9,3.2-1.1,4.9-.6,1.8.5,3.1,1.5,4,3,.9,1.6,1.1,3.2.6,4.9-.5,1.7-1.5,3.1-3,3.9-1.6.9-3.2,1.1-4.9.6-1.7-.5-3-1.5-3.9-3-.9-1.6-1.1-3.2-.6-5ZM1037.6-292.1c-.3,1.1-.2,2.1.4,3,.5.9,1.3,1.6,2.4,1.9,1,.3,2,.2,3-.4.9-.5,1.6-1.3,1.9-2.4.3-1.1.2-2.1-.4-3-.5-.9-1.3-1.6-2.4-1.8-1.1-.3-2.1-.2-3,.4-.9.5-1.6,1.3-1.9,2.4ZM798.8,666.2l4.1,1.1-7,26c1.3-.6,2.8-1.2,4.7-1.7,1.8-.5,3.5-.8,4.9-.9l-1.1,3.9c-2.7.4-5,1.2-7.1,2.3-2.1,1.1-3.8,2.1-4.9,3.5l-2.7-.7,9-33.4ZM778.4,680c1.5,1.1,2.5,2.3,3,3.7.5,1.4.5,2.9.1,4.5-.7,2.4-2.1,4.2-4.3,5.4-2.2,1.2-4.7,1.4-7.6.6-2.9-.8-5-2.3-6.3-4.4-1.3-2.2-1.6-4.4-1-6.9.4-1.5,1.2-2.8,2.3-3.7,1.1-.9,2.6-1.5,4.4-1.6-1.9-1.2-3.1-2.7-3.8-4.5-.7-1.8-.7-3.7-.2-5.7.8-2.8,2.4-4.9,4.9-6.3,2.5-1.4,5.4-1.6,8.7-.8,3.3.9,5.7,2.6,7.1,5.1,1.5,2.5,1.8,5.2,1,8.1-.6,2.2-1.6,3.8-3.1,5-1.5,1.2-3.3,1.7-5.5,1.7ZM782.8,672.2c.3-1.2.3-2.4,0-3.6-.3-1.2-.8-2.3-1.8-3.2s-2-1.5-3.3-1.8c-1.9-.5-3.7-.3-5.3.6-1.6.9-2.7,2.3-3.2,4.3-.5,2-.3,3.8.6,5.4,1,1.6,2.4,2.7,4.4,3.3,1.9.5,3.7.3,5.3-.6,1.6-.9,2.7-2.3,3.2-4.2ZM777.4,687.1c.4-1.6.3-3-.5-4.3-.7-1.3-1.9-2.1-3.5-2.6-1.6-.4-3-.3-4.3.4-1.3.7-2.1,1.8-2.5,3.2-.4,1.5-.2,2.9.5,4.2.8,1.3,1.9,2.2,3.4,2.6,1.6.4,3,.3,4.3-.4,1.3-.7,2.1-1.8,2.5-3.2ZM760.5,673.4c-1.1,3.9-2.3,7-3.8,9.1-1.5,2.2-3.2,3.7-5.1,4.6-1.9.9-4.1,1-6.5.3-1.8-.5-3.2-1.3-4.4-2.3-1.1-1.1-2-2.4-2.5-4-.5-1.6-.8-3.4-.7-5.5,0-2.1.5-4.8,1.4-8,1.1-3.9,2.3-6.9,3.8-9.1,1.4-2.2,3.1-3.7,5.1-4.6,1.9-.9,4.1-1,6.6-.3,3.2.9,5.4,2.7,6.6,5.5,1.4,3.4,1.3,8.1-.4,14.4ZM756.3,672.3c1.5-5.4,1.8-9.2,1-11.4-.8-2.1-2.1-3.5-4-4-1.9-.5-3.7,0-5.5,1.4s-3.4,4.9-4.9,10.3c-1.5,5.5-1.8,9.3-1,11.4.8,2.1,2.1,3.5,4,4,1.9.5,3.6.1,5.1-1.2,2-1.6,3.7-5.2,5.1-10.6ZM731.9,677.6c-.5,1.7-1.5,3-3,3.9-1.6.9-3.2,1.1-4.9.6-1.8-.5-3.1-1.5-4-3-.9-1.6-1.1-3.2-.6-4.9.5-1.7,1.5-3.1,3-3.9,1.6-.9,3.2-1.1,4.9-.6,1.7.5,3,1.5,3.9,3,.9,1.6,1.1,3.2.6,5ZM729.4,676.9c.3-1.1.2-2.1-.4-3-.5-.9-1.3-1.6-2.4-1.9-1-.3-2-.2-3,.4-.9.5-1.6,1.3-1.9,2.4-.3,1.1-.2,2.1.4,3,.5.9,1.3,1.6,2.4,1.8,1.1.3,2.1.2,3-.4.9-.5,1.6-1.3,1.9-2.4ZM1374.6,292.4l-.7,4c-1.9-.2-3.4.1-4.5.8-1.1.7-1.8,1.8-2.2,3.3-.3,1.3-.3,2.4,0,3.5.3,1.1.9,2.1,1.7,2.9.8.9,2,1.7,3.5,2.6,1.5.8,3.1,1.5,4.8,2,.2,0,.5.1.8.2-1.1-1.2-1.8-2.6-2.3-4.2-.4-1.6-.4-3.3,0-4.9.7-2.7,2.4-4.8,4.9-6.2,2.5-1.4,5.4-1.6,8.6-.7,3.4.9,5.8,2.6,7.3,5.2,1.5,2.5,1.9,5.3,1.1,8.3-.6,2.2-1.7,4-3.3,5.4-1.6,1.5-3.7,2.4-6.1,2.7-2.4.3-5.6,0-9.7-1.1-4.2-1.1-7.5-2.5-9.8-4.1-2.3-1.6-3.8-3.5-4.6-5.7-.8-2.2-.9-4.5-.2-6.9.7-2.6,2-4.5,3.9-5.8,1.9-1.3,4.2-1.7,6.9-1.3ZM1384.8,313c2.3.6,4.4.5,6.1-.4,1.7-.9,2.8-2.2,3.3-3.9.5-1.8.2-3.6-.9-5.3-1.1-1.7-2.8-2.9-5.2-3.6-2.1-.6-4-.4-5.7.5-1.7.9-2.8,2.3-3.3,4.2-.5,1.9-.3,3.6.7,5.2,1,1.6,2.7,2.7,5,3.3ZM1376.8,318.7c3.9,1.1,7,2.3,9.1,3.8,2.2,1.5,3.7,3.2,4.6,5.1.9,1.9,1,4.1.3,6.5-.5,1.8-1.3,3.2-2.3,4.4-1.1,1.1-2.4,2-4,2.5-1.6.5-3.4.8-5.5.7-2.1,0-4.8-.5-8-1.4-3.9-1.1-6.9-2.3-9.1-3.8-2.2-1.4-3.7-3.1-4.6-5.1-.9-1.9-1-4.1-.3-6.6.9-3.2,2.7-5.4,5.5-6.6,3.4-1.4,8.1-1.3,14.4.4ZM1375.7,322.9c-5.4-1.5-9.2-1.8-11.4-1-2.1.8-3.5,2.1-4,4-.5,1.9,0,3.7,1.4,5.5,1.5,1.8,4.9,3.4,10.3,4.9,5.5,1.5,9.3,1.8,11.4,1,2.1-.8,3.5-2.1,4-4,.5-1.9.1-3.6-1.2-5.1-1.6-2-5.2-3.7-10.6-5.1ZM1381,347.3c1.7.5,3,1.5,3.9,3,.9,1.6,1.1,3.2.6,4.9-.5,1.8-1.5,3.1-3,4-1.6.9-3.2,1.1-4.9.6-1.7-.5-3.1-1.5-3.9-3-.9-1.6-1.1-3.2-.6-4.9.5-1.7,1.5-3,3-3.9,1.6-.9,3.2-1.1,5-.6ZM1380.3,349.8c-1.1-.3-2.1-.2-3,.4-.9.5-1.6,1.3-1.9,2.4-.3,1-.2,2,.4,3,.5.9,1.3,1.6,2.4,1.9,1.1.3,2.1.2,3-.4.9-.5,1.6-1.3,1.8-2.4.3-1.1.2-2.1-.4-3-.5-.9-1.3-1.6-2.4-1.9ZM423,91.6l3.9,1.1-5.9,21.9c-.9-.2-1.8-.6-2.7-1.2-1.3-1-2.5-2.2-3.7-3.9-1.1-1.6-2.3-3.8-3.6-6.7-2-4.4-3.7-7.5-5-9.2-1.4-1.7-2.8-2.8-4.4-3.2-1.6-.4-3.1-.2-4.6.6-1.4.9-2.4,2.2-2.9,4.1-.5,2-.4,3.7.5,5.2.9,1.5,2.3,2.5,4.4,3.1l-1.6,4.1c-3-1.1-5.1-2.9-6.3-5.2-1.1-2.3-1.3-5-.4-8.2.9-3.2,2.4-5.5,4.7-6.8,2.3-1.4,4.7-1.7,7.3-1,1.3.4,2.6,1,3.7,1.9,1.1.9,2.2,2.2,3.3,3.8,1.1,1.6,2.5,4.3,4.1,7.9,1.4,3,2.3,4.9,2.9,5.8.5.9,1.2,1.7,1.7,2.3l4.4-16.3ZM399,81.4l-3.9-1.1,5.8-21.5,3.3.9c1.7,2.8,4.1,5.6,7.3,8.7,3.2,3.1,6.5,5.7,10.2,7.9,2.6,1.6,5.5,2.9,8.7,4l-1.1,4.2c-2.6-.7-5.6-2.1-9-4.1-3.4-2-6.6-4.4-9.6-7.1-2.9-2.8-5.3-5.5-7.1-8.2l-4.4,16.3ZM418.1,60.4c-3.9-1.1-7-2.3-9.1-3.8-2.2-1.5-3.7-3.2-4.6-5.1-.9-1.9-1-4.1-.3-6.5.5-1.8,1.3-3.2,2.3-4.4,1.1-1.1,2.4-2,4-2.5,1.6-.5,3.4-.8,5.5-.7,2.1,0,4.8.5,8,1.4,3.9,1.1,6.9,2.3,9.1,3.8,2.2,1.4,3.7,3.1,4.6,5.1.9,1.9,1,4.1.3,6.6-.9,3.2-2.7,5.4-5.5,6.6-3.4,1.4-8.1,1.3-14.4-.4ZM419.3,56.3c5.4,1.5,9.2,1.8,11.4,1,2.1-.8,3.5-2.1,4-4,.5-1.9,0-3.7-1.4-5.5-1.5-1.8-4.9-3.4-10.3-4.9-5.5-1.5-9.3-1.8-11.4-1-2.1.8-3.5,2.1-4,4-.5,1.9-.1,3.6,1.2,5.1,1.6,2,5.2,3.7,10.6,5.1ZM414,31.8c-1.7-.5-3-1.5-3.9-3-.9-1.6-1.1-3.2-.6-4.9.5-1.8,1.5-3.1,3-4,1.6-.9,3.2-1.1,4.9-.6,1.7.5,3.1,1.5,3.9,3,.9,1.6,1.1,3.2.6,4.9-.5,1.7-1.5,3-3,3.9-1.6.9-3.2,1.1-5,.6ZM414.6,29.4c1.1.3,2.1.2,3-.4.9-.5,1.6-1.3,1.9-2.4.3-1,.2-2-.4-3-.5-.9-1.3-1.6-2.4-1.9-1.1-.3-2.1-.2-3,.4-.9.5-1.6,1.3-1.8,2.4-.3,1.1-.2,2.1.4,3s1.3,1.6,2.4,1.9ZM1383.7,63.2l-1.3-4c1.5-.8,2.6-1.6,3.1-2.4.9-1.4,1.1-2.9.7-4.5-.3-1.3-1-2.4-1.9-3.2-1.3-1.1-2.9-1.7-4.9-2-2-.3-4.7,0-8,.8,1.7.6,3.2,1.5,4.2,2.8,1.1,1.2,1.8,2.6,2.2,4.2.7,2.7.3,5.3-1.3,7.7-1.5,2.4-3.9,4-7.1,4.8-2.1.5-4.2.6-6.2.1-2-.5-3.7-1.4-5.1-2.7-1.3-1.3-2.3-3-2.8-5-.9-3.4-.3-6.5,1.7-9.3,2-2.8,5.8-4.9,11.6-6.3,6.4-1.6,11.4-1.6,15,0,3.1,1.4,5,3.9,5.9,7.4.7,2.6.5,5-.6,7-1.1,2-2.8,3.6-5.3,4.5ZM1365.2,50.1c-1.4.4-2.7,1-3.8,1.9-1.1.9-1.9,2-2.3,3.2-.4,1.2-.5,2.5-.2,3.6.4,1.7,1.5,3,3.2,3.9,1.7.9,3.8,1,6.2.4,2.3-.6,4-1.6,5-3.2,1-1.6,1.3-3.3.8-5.1-.5-1.9-1.5-3.3-3.2-4.2-1.6-1-3.6-1.2-5.7-.6ZM1375.9,68.9c3.9-1,7.2-1.4,9.8-1.2,2.6.2,4.8,1,6.5,2.2s2.9,3.1,3.5,5.6c.4,1.8.5,3.4,0,5-.4,1.5-1.1,2.9-2.3,4.1-1.1,1.2-2.6,2.3-4.4,3.3-1.8,1-4.4,1.9-7.7,2.7-3.9,1-7.2,1.4-9.8,1.2-2.6-.2-4.8-.9-6.5-2.2-1.7-1.3-2.9-3.1-3.5-5.6-.8-3.2-.3-6,1.6-8.4,2.2-2.9,6.5-5.1,12.7-6.7ZM1376.9,73.1c-5.5,1.4-9,2.9-10.5,4.7-1.5,1.7-2,3.5-1.5,5.4.5,1.9,1.8,3.2,3.9,4.1,2.1.8,5.9.6,11.4-.8,5.5-1.4,9-2.9,10.5-4.7,1.5-1.7,2-3.6,1.5-5.5-.5-1.9-1.6-3.2-3.5-3.9-2.4-.9-6.3-.7-11.8.7ZM1393.5,91.8c1.7-.4,3.4-.2,4.9.7,1.5.9,2.5,2.3,3,4,.4,1.8.2,3.4-.7,4.9-.9,1.5-2.3,2.5-4,3-1.7.4-3.4.2-4.9-.7-1.5-.9-2.5-2.3-3-4-.4-1.7-.2-3.4.7-4.9.9-1.5,2.3-2.5,4-3ZM1394.1,94.3c-1.1.3-1.9.9-2.4,1.8-.6.9-.7,1.9-.4,3,.3,1,.9,1.9,1.8,2.4.9.6,1.9.7,3,.4,1.1-.3,1.9-.9,2.4-1.8.6-.9.7-1.9.5-3-.3-1.1-.9-1.9-1.8-2.4-.9-.6-1.9-.7-3-.4ZM432.4,335.4l3.9-1,5.5,22c-1,.3-2,.4-3,.2-1.6-.2-3.3-.7-5.1-1.6-1.8-.9-3.9-2.2-6.4-4.1-3.9-2.9-6.8-4.7-8.9-5.6-2.1-.8-3.9-1.1-5.4-.7-1.6.4-2.8,1.3-3.7,2.8-.8,1.4-1,3.1-.5,5,.5,2,1.5,3.4,3,4.3,1.5.9,3.3,1.1,5.4.6l.6,4.3c-3.2.5-5.9,0-8-1.5-2.1-1.5-3.6-3.8-4.4-7-.8-3.2-.5-6,.8-8.3,1.3-2.3,3.3-3.8,5.9-4.4,1.3-.3,2.7-.4,4.1-.2,1.4.2,3,.8,4.8,1.7,1.7.9,4.2,2.5,7.4,4.8,2.7,1.9,4.5,3.2,5.4,3.7.9.5,1.8.9,2.7,1.2l-4.1-16.4ZM432.2,318l-8,2,3.6,14.5-3.8.9-25.4-9.8-.8-3.3,21.6-5.4-1.1-4.5,3.8-.9,1.1,4.5,8-2,1,4.1ZM420.5,320.9l-15,3.8,17.6,6.7-2.6-10.4ZM412.9,310.5c-3.9,1-7.2,1.4-9.8,1.2-2.6-.2-4.8-1-6.5-2.2-1.7-1.3-2.9-3.1-3.5-5.6-.4-1.8-.5-3.4,0-5,.4-1.5,1.1-2.9,2.3-4.1,1.1-1.2,2.6-2.3,4.4-3.3,1.8-1,4.4-1.9,7.7-2.7,3.9-1,7.2-1.4,9.8-1.2,2.6.2,4.8.9,6.5,2.2,1.7,1.3,2.9,3.1,3.5,5.6.8,3.2.3,6-1.6,8.4-2.2,2.9-6.5,5.1-12.7,6.7ZM411.8,306.3c5.5-1.4,9-2.9,10.5-4.7,1.5-1.7,2-3.5,1.5-5.4-.5-1.9-1.8-3.2-3.9-4.1-2.1-.8-5.9-.6-11.4.8-5.5,1.4-9,2.9-10.5,4.7-1.5,1.7-2,3.6-1.5,5.5.5,1.9,1.6,3.2,3.5,3.9,2.4.9,6.3.7,11.8-.7ZM395.3,287.6c-1.7.4-3.4.2-4.9-.7-1.5-.9-2.5-2.3-3-4-.4-1.8-.2-3.4.7-4.9.9-1.5,2.3-2.5,4-3,1.7-.4,3.4-.2,4.9.7,1.5.9,2.5,2.3,3,4,.4,1.7.2,3.4-.7,4.9-.9,1.5-2.3,2.5-4,3ZM394.7,285.1c1.1-.3,1.9-.9,2.4-1.8.6-.9.7-1.9.4-3-.3-1-.9-1.9-1.8-2.4-.9-.6-1.9-.7-3-.4-1.1.3-1.9.9-2.4,1.8-.6.9-.7,1.9-.5,3,.3,1.1.9,1.9,1.8,2.4.9.6,1.9.7,3,.4ZM1217-172l3.4,2.6c-1.4,2-2,3.8-2,5.4,0,1.6.7,3,1.8,4.2,1.4,1.4,3,2.1,5,2.2,1.9,0,3.6-.7,5.1-2.1,1.4-1.4,2.1-2.9,2.1-4.7,0-1.8-.7-3.4-2-4.8-.6-.6-1.4-1.2-2.4-1.8l3-2.3c.2.2.3.4.4.5,1.3,1.3,2.7,2.1,4.4,2.5,1.7.4,3.2-.1,4.6-1.5,1.1-1.1,1.7-2.4,1.7-3.8,0-1.5-.6-2.8-1.7-4-1.1-1.2-2.5-1.8-4-1.9-1.5,0-3.1.5-4.8,1.7l-2.4-3.5c2.4-1.6,4.8-2.3,7.2-2.1,2.4.2,4.5,1.3,6.4,3.3,1.3,1.3,2.2,2.9,2.8,4.6.5,1.7.6,3.3.2,4.9-.4,1.6-1.2,2.9-2.3,4-1.1,1-2.3,1.7-3.7,2-1.4.3-2.9.1-4.6-.5,1.1,1.8,1.5,3.6,1.2,5.4-.3,1.8-1.2,3.5-2.8,5.1-2.1,2.1-4.7,3.1-7.8,3-3-.1-5.7-1.4-8-3.8-2.1-2.2-3.2-4.6-3.3-7.3-.1-2.7.8-5.1,2.6-7.3ZM1240.4-159.3c2.9-2.8,5.5-4.8,7.9-6,2.4-1.1,4.6-1.6,6.7-1.3,2.1.2,4,1.3,5.8,3,1.3,1.3,2.2,2.7,2.6,4.3.4,1.5.5,3.1.1,4.7-.4,1.6-1.1,3.3-2.2,5.1-1.1,1.8-2.8,3.8-5.3,6.2-2.9,2.8-5.5,4.8-7.9,5.9-2.4,1.1-4.6,1.6-6.7,1.4-2.1-.2-4.1-1.3-5.8-3.1-2.3-2.4-3.3-5.1-2.9-8.1.5-3.6,3-7.7,7.6-12.2ZM1243.5-156.2c-4,3.9-6.3,7-6.7,9.3-.4,2.3,0,4.1,1.4,5.5,1.4,1.4,3.2,1.9,5.4,1.5,2.3-.4,5.4-2.5,9.4-6.4,4.1-4,6.3-7.1,6.7-9.3.4-2.2,0-4.1-1.4-5.5-1.4-1.4-3-1.9-5-1.6-2.5.4-5.8,2.6-9.8,6.5ZM1267.2-148.3c1.3-1.3,2.8-1.9,4.6-1.8,1.8,0,3.3.7,4.6,2,1.3,1.3,1.9,2.8,1.9,4.6,0,1.8-.7,3.3-2,4.6-1.3,1.3-2.8,1.9-4.6,1.8-1.8,0-3.3-.7-4.6-2-1.2-1.3-1.9-2.8-1.8-4.6,0-1.8.7-3.3,2-4.6ZM1269-146.5c-.8.8-1.2,1.7-1.2,2.8s.4,2,1.1,2.8c.8.8,1.7,1.2,2.8,1.2,1.1,0,2-.4,2.8-1.1.8-.8,1.2-1.7,1.2-2.8,0-1.1-.4-2-1.1-2.8-.8-.8-1.7-1.2-2.8-1.2-1.1,0-2,.4-2.8,1.1ZM560,546.6l2.9-2.8,15.9,16.3c-.7.7-1.5,1.3-2.4,1.7-1.5.7-3.2,1.1-5.2,1.2-2,.1-4.5,0-7.6-.3-4.8-.5-8.3-.6-10.5-.3-2.2.3-3.9,1-5,2.1-1.2,1.2-1.8,2.6-1.8,4.2,0,1.7.7,3.2,2,4.6,1.4,1.5,3,2.2,4.7,2.2,1.7,0,3.4-.7,4.9-2.2l2.7,3.4c-2.5,2-5.1,3-7.6,2.8-2.6-.2-5-1.5-7.3-3.8-2.3-2.4-3.5-4.9-3.5-7.5,0-2.7.9-4.9,2.9-6.8,1-1,2.1-1.7,3.5-2.2,1.3-.5,3-.8,5-.9,2,0,4.9,0,8.9.4,3.3.3,5.5.5,6.5.5,1,0,2-.1,2.9-.3l-11.8-12.1ZM549.5,530l2.9,3-19.3,18.8c1.4,0,3,.3,4.9.8,1.8.5,3.4,1.1,4.7,1.7l-2.9,2.8c-2.4-.9-4.8-1.5-7.2-1.6-2.4-.2-4.3,0-5.9.5l-1.9-1.9,24.7-24.1ZM530.7,534.9c-2.9,2.8-5.5,4.8-7.9,6-2.4,1.1-4.6,1.6-6.7,1.3-2.1-.2-4-1.3-5.8-3-1.3-1.3-2.2-2.7-2.6-4.3-.4-1.5-.5-3.1-.1-4.7.4-1.6,1.1-3.3,2.2-5.1,1.1-1.8,2.8-3.8,5.3-6.2,2.9-2.8,5.5-4.8,7.9-5.9,2.4-1.1,4.6-1.6,6.7-1.4,2.1.2,4.1,1.3,5.8,3.1,2.3,2.4,3.3,5.1,2.9,8.1-.5,3.6-3,7.7-7.6,12.2ZM527.6,531.8c4-3.9,6.3-7,6.7-9.3.4-2.3,0-4.1-1.4-5.5-1.4-1.4-3.2-1.9-5.4-1.5-2.3.4-5.4,2.5-9.4,6.4-4.1,4-6.3,7.1-6.7,9.3s0,4.1,1.4,5.5c1.4,1.4,3,1.9,5,1.6,2.5-.4,5.8-2.6,9.8-6.5ZM503.9,524c-1.3,1.3-2.8,1.9-4.6,1.8-1.8,0-3.3-.7-4.6-2-1.3-1.3-1.9-2.8-1.9-4.6,0-1.8.7-3.3,2-4.6,1.3-1.3,2.8-1.9,4.6-1.8,1.8,0,3.3.7,4.6,2,1.2,1.3,1.9,2.8,1.8,4.6,0,1.8-.7,3.3-2,4.6ZM502.1,522.2c.8-.8,1.2-1.7,1.2-2.8,0-1.1-.4-2-1.1-2.8-.8-.8-1.7-1.2-2.8-1.2-1.1,0-2,.4-2.8,1.1-.8.8-1.2,1.7-1.2,2.8,0,1.1.4,2,1.1,2.8.8.8,1.7,1.2,2.8,1.2,1.1,0,2-.4,2.8-1.1ZM734.3-268.1l4-1.6c1,2.2,2.3,3.7,3.6,4.4,1.4.7,2.9.9,4.5.5,1.9-.5,3.4-1.5,4.4-3.2,1-1.7,1.3-3.5.8-5.5-.5-1.9-1.5-3.3-3-4.2-1.5-.9-3.2-1.1-5.1-.7-.8.2-1.7.6-2.8,1.2l-.4-3.7c.3,0,.5,0,.7-.1,1.7-.4,3.2-1.3,4.4-2.5,1.2-1.3,1.5-2.8,1.1-4.7-.4-1.5-1.2-2.6-2.4-3.4-1.3-.7-2.7-.9-4.3-.5-1.6.4-2.8,1.2-3.6,2.5-.8,1.3-1.1,2.9-.9,5l-4.3.3c-.2-2.9.4-5.3,1.8-7.2,1.4-1.9,3.4-3.2,6.1-3.9,1.8-.4,3.6-.5,5.3,0,1.7.4,3.2,1.2,4.3,2.3,1.1,1.2,1.9,2.5,2.3,4,.4,1.4.3,2.9-.2,4.2-.5,1.4-1.4,2.6-2.7,3.7,2.1,0,3.9.5,5.3,1.7,1.4,1.2,2.4,2.8,3,5,.7,2.9.3,5.6-1.4,8.2-1.6,2.5-4.1,4.2-7.3,5-2.9.7-5.6.4-7.9-.8-2.4-1.3-4-3.3-5-6ZM759.1-274.1l4-1.6c1,2.2,2.3,3.7,3.6,4.4,1.4.7,2.9.9,4.5.5,1.9-.5,3.4-1.5,4.4-3.2,1-1.7,1.3-3.5.8-5.5-.5-1.9-1.5-3.3-3-4.2-1.5-.9-3.2-1.1-5.1-.7-.8.2-1.7.6-2.8,1.2l-.4-3.7c.3,0,.5,0,.7-.1,1.7-.4,3.2-1.3,4.4-2.5,1.2-1.3,1.5-2.8,1.1-4.7-.4-1.5-1.2-2.6-2.4-3.4-1.3-.7-2.7-.9-4.3-.5-1.6.4-2.8,1.2-3.6,2.5-.8,1.3-1.1,2.9-.9,5l-4.3.3c-.2-2.9.4-5.3,1.8-7.2,1.4-1.9,3.4-3.2,6.1-3.9,1.8-.4,3.6-.5,5.3,0,1.7.4,3.2,1.2,4.3,2.3,1.1,1.2,1.9,2.5,2.3,4,.4,1.4.3,2.9-.2,4.2-.5,1.4-1.4,2.6-2.7,3.7,2.1,0,3.9.5,5.3,1.7,1.4,1.2,2.4,2.8,3,5,.7,2.9.3,5.6-1.4,8.2-1.6,2.5-4.1,4.2-7.3,5-2.9.7-5.6.4-7.9-.8-2.4-1.3-4-3.3-5-6ZM782-287.9c-1-3.9-1.3-7.2-1.1-9.8.2-2.6,1-4.8,2.3-6.5,1.3-1.7,3.1-2.8,5.6-3.4,1.8-.4,3.5-.5,5,0,1.5.4,2.9,1.2,4.1,2.3,1.2,1.1,2.3,2.6,3.3,4.5,1,1.8,1.9,4.4,2.7,7.7,1,3.9,1.3,7.2,1.1,9.8-.2,2.6-1,4.8-2.2,6.5-1.3,1.7-3.1,2.9-5.6,3.5-3.2.8-6,.3-8.4-1.6-2.9-2.2-5.1-6.5-6.6-12.8ZM786.2-288.9c1.3,5.5,2.9,9,4.6,10.5,1.7,1.5,3.5,2,5.4,1.6,1.9-.5,3.2-1.8,4.1-3.9.8-2.1.6-5.9-.8-11.4-1.3-5.5-2.9-9-4.6-10.5-1.7-1.5-3.5-2-5.5-1.5-1.9.5-3.2,1.6-3.9,3.5-.9,2.4-.7,6.3.6,11.8ZM805-305.4c-.4-1.7-.2-3.4.8-4.9.9-1.5,2.3-2.5,4-2.9,1.8-.4,3.4-.2,4.9.7,1.5.9,2.5,2.3,2.9,4,.4,1.7.2,3.4-.8,4.9-.9,1.5-2.3,2.5-4,3-1.7.4-3.4.2-4.9-.8-1.5-.9-2.5-2.3-3-4ZM807.5-306c.3,1.1.9,1.9,1.8,2.4.9.6,1.9.7,3,.5,1-.3,1.9-.9,2.4-1.8.6-.9.7-1.9.5-3-.3-1.1-.9-1.9-1.8-2.4-.9-.6-1.9-.7-3-.5-1.1.3-1.9.9-2.4,1.8-.6.9-.7,1.9-.5,3ZM1037.5,654.3l4.1-1,6.4,26.1c.8-1.2,1.8-2.4,3.2-3.8,1.4-1.3,2.6-2.4,3.8-3.2l1,4c-2,1.6-3.7,3.4-5.1,5.4-1.3,2-2.2,3.7-2.5,5.4l-2.6.6-8.2-33.5ZM1030.4,665.3l-4.2,1.4c-.8-2-2-3.4-3.4-4.2-1.4-.8-3-1-4.6-.6-2,.5-3.5,1.6-4.5,3.5-1,1.8-1.2,4-.6,6.4.6,2.3,1.7,4,3.3,5.1,1.6,1,3.5,1.3,5.7.8,1.3-.3,2.4-.9,3.4-1.8s1.6-1.8,1.9-2.9l4-.4,1,17.9-16.6,4.1-1-3.9,13.3-3.3-.4-9.4c-1.7,1.9-3.6,3.1-5.8,3.6-2.9.7-5.6.3-8.1-1.2-2.5-1.5-4.1-3.9-4.9-7.1-.7-3-.5-5.8.7-8.5,1.5-3.2,4.1-5.3,7.8-6.2,3-.7,5.7-.5,8.1.7,2.3,1.2,4,3.2,5,6ZM1007.5,679.1c1,3.9,1.3,7.2,1.1,9.8-.2,2.6-1,4.8-2.3,6.5-1.3,1.7-3.1,2.8-5.6,3.4-1.8.4-3.5.5-5,0-1.5-.4-2.9-1.2-4.1-2.3-1.2-1.1-2.3-2.6-3.3-4.5-1-1.8-1.9-4.4-2.7-7.7-1-3.9-1.3-7.2-1.1-9.8.2-2.6,1-4.8,2.2-6.5,1.3-1.7,3.1-2.9,5.6-3.5,3.2-.8,6-.3,8.4,1.6,2.9,2.2,5.1,6.5,6.6,12.8ZM1003.3,680.1c-1.3-5.5-2.9-9-4.6-10.5-1.7-1.5-3.5-2-5.4-1.6-1.9.5-3.2,1.8-4.1,3.9-.8,2.1-.6,5.9.8,11.4,1.3,5.5,2.9,9,4.6,10.5,1.7,1.5,3.5,2,5.5,1.5,1.9-.5,3.2-1.6,3.9-3.5.9-2.4.7-6.3-.6-11.8ZM984.5,696.6c.4,1.7.2,3.4-.8,4.9-.9,1.5-2.3,2.5-4,2.9-1.8.4-3.4.2-4.9-.7-1.5-.9-2.5-2.3-2.9-4-.4-1.7-.2-3.4.8-4.9.9-1.5,2.3-2.5,4-3,1.7-.4,3.4-.2,4.9.8,1.5.9,2.5,2.3,3,4ZM982,697.2c-.3-1.1-.9-1.9-1.8-2.4-.9-.6-1.9-.7-3-.5-1,.3-1.9.9-2.4,1.8-.6.9-.7,1.9-.5,3,.3,1.1.9,1.9,1.8,2.4.9.6,1.9.7,3,.5,1.1-.3,1.9-.9,2.4-1.8.6-.9.7-1.9.5-3ZM524.5-123.9l2.6-3.3c2,1.4,3.8,2,5.4,2,1.6,0,3-.7,4.2-1.8,1.4-1.4,2.1-3,2.2-5,0-1.9-.7-3.6-2.1-5.1-1.4-1.4-2.9-2.1-4.7-2.1-1.8,0-3.4.7-4.8,2-.6.6-1.2,1.4-1.8,2.4l-2.2-3c.2-.2.4-.3.5-.4,1.3-1.3,2.1-2.7,2.5-4.4.4-1.7-.1-3.2-1.5-4.6-1.1-1.1-2.3-1.7-3.8-1.7-1.5,0-2.8.6-4,1.7-1.2,1.1-1.8,2.5-1.9,4,0,1.5.5,3.1,1.7,4.8l-3.5,2.4c-1.6-2.4-2.3-4.8-2.1-7.2.2-2.4,1.3-4.5,3.3-6.4,1.3-1.3,2.9-2.2,4.6-2.7,1.7-.5,3.3-.6,4.9-.2,1.6.4,2.9,1.2,4,2.3,1,1.1,1.7,2.3,2,3.7.3,1.4.1,2.9-.5,4.6,1.8-1.1,3.6-1.5,5.4-1.2,1.8.3,3.5,1.2,5.1,2.8,2.1,2.2,3.1,4.7,3,7.8-.1,3-1.4,5.7-3.8,8-2.2,2.1-4.6,3.2-7.3,3.3-2.7.1-5.1-.8-7.3-2.6ZM537.3-147.3c-2.8-2.9-4.8-5.5-5.9-7.9-1.1-2.4-1.6-4.6-1.3-6.7.2-2.1,1.3-4,3.1-5.8,1.3-1.3,2.7-2.1,4.3-2.6,1.5-.4,3.1-.5,4.7-.1,1.6.4,3.3,1.1,5.1,2.2,1.8,1.1,3.8,2.8,6.2,5.3,2.8,2.9,4.8,5.5,5.9,7.9,1.1,2.4,1.6,4.6,1.3,6.7-.2,2.1-1.3,4.1-3.1,5.8-2.4,2.3-5.1,3.3-8.1,2.9-3.6-.5-7.7-3-12.2-7.6ZM540.4-150.3c3.9,4,7,6.3,9.3,6.7,2.2.4,4.1,0,5.5-1.4,1.4-1.4,1.9-3.2,1.5-5.4-.4-2.3-2.5-5.4-6.4-9.4-3.9-4.1-7-6.3-9.3-6.7-2.2-.4-4.1,0-5.5,1.4-1.4,1.4-1.9,3-1.6,5,.4,2.5,2.6,5.8,6.5,9.8ZM555.5-165.1c-2.8-2.9-4.8-5.5-5.9-7.9-1.1-2.4-1.6-4.6-1.3-6.7.2-2.1,1.3-4,3.1-5.8,1.3-1.3,2.7-2.1,4.3-2.6,1.5-.4,3.1-.5,4.7-.1,1.6.4,3.3,1.1,5.1,2.2,1.8,1.1,3.8,2.8,6.2,5.3,2.8,2.9,4.8,5.5,5.9,7.9,1.1,2.4,1.6,4.6,1.3,6.7-.2,2.1-1.3,4.1-3.1,5.8-2.4,2.3-5.1,3.3-8.1,2.9-3.6-.5-7.7-3-12.2-7.6ZM558.6-168.1c3.9,4,7,6.3,9.3,6.7,2.2.4,4.1,0,5.5-1.4,1.4-1.4,1.9-3.2,1.5-5.4-.4-2.3-2.5-5.4-6.4-9.4-3.9-4.1-7-6.3-9.3-6.7-2.2-.4-4.1,0-5.5,1.4-1.4,1.4-1.9,3-1.6,5,.4,2.5,2.6,5.8,6.5,9.8ZM566.5-191.9c-1.3-1.3-1.9-2.8-1.8-4.6,0-1.8.7-3.3,2-4.6,1.3-1.3,2.8-1.9,4.6-1.9,1.8,0,3.3.7,4.6,2,1.3,1.3,1.9,2.8,1.8,4.6,0,1.8-.7,3.3-2,4.6-1.3,1.2-2.8,1.9-4.6,1.8-1.8,0-3.3-.7-4.6-2ZM568.3-193.6c.8.8,1.7,1.2,2.8,1.2,1.1,0,2-.4,2.8-1.1.8-.8,1.2-1.7,1.2-2.8,0-1.1-.4-2-1.1-2.8-.8-.8-1.7-1.2-2.8-1.2-1.1,0-2,.4-2.8,1.1-.8.8-1.2,1.7-1.2,2.8,0,1.1.4,2,1.1,2.8ZM1253.1,517.8l3-2.9,18.8,19.3c0-1.4.3-3,.8-4.9.5-1.8,1.1-3.4,1.7-4.7l2.8,2.9c-.9,2.4-1.5,4.8-1.6,7.2-.2,2.4,0,4.3.5,5.9l-1.9,1.9-24.1-24.7ZM1233.1,542.9l-2.8-2.9,16.3-15.8c.7.7,1.3,1.5,1.7,2.4.7,1.5,1.1,3.3,1.2,5.2.1,2,0,4.5-.3,7.6-.5,4.8-.7,8.3-.4,10.5.3,2.2,1,3.9,2.1,5,1.2,1.2,2.6,1.8,4.2,1.8,1.7,0,3.2-.7,4.6-2,1.5-1.4,2.2-3,2.2-4.7,0-1.7-.7-3.4-2.2-4.9l3.4-2.7c2,2.5,3,5.1,2.8,7.6-.2,2.6-1.5,5-3.8,7.3-2.4,2.3-4.9,3.5-7.5,3.5-2.7,0-4.9-.9-6.8-2.9-1-1-1.7-2.2-2.2-3.5-.5-1.3-.8-3-.9-5,0-2,0-4.9.4-8.9.3-3.3.5-5.5.5-6.5,0-1-.1-2-.3-2.9l-12.1,11.8ZM1239.7,554.5c2.8,2.9,4.8,5.5,5.9,7.9,1.1,2.4,1.6,4.6,1.3,6.7-.2,2.1-1.3,4-3.1,5.8-1.3,1.3-2.7,2.1-4.3,2.6-1.5.4-3.1.5-4.7.1-1.6-.4-3.3-1.1-5.1-2.2-1.8-1.1-3.8-2.8-6.2-5.3-2.8-2.9-4.8-5.5-5.9-7.9-1.1-2.4-1.6-4.6-1.3-6.7.2-2.1,1.3-4.1,3.1-5.8,2.4-2.3,5.1-3.3,8.1-2.9,3.6.5,7.7,3,12.2,7.6ZM1236.6,557.5c-3.9-4-7-6.3-9.3-6.7-2.3-.4-4.1,0-5.5,1.4-1.4,1.4-1.9,3.2-1.5,5.4.4,2.3,2.5,5.4,6.4,9.4,3.9,4.1,7,6.3,9.3,6.7,2.2.4,4.1,0,5.5-1.4,1.4-1.4,1.9-3,1.6-5-.4-2.5-2.6-5.8-6.5-9.8ZM1228.8,581.2c1.3,1.3,1.9,2.8,1.8,4.6,0,1.8-.7,3.3-2,4.6-1.3,1.3-2.8,1.9-4.6,1.9-1.8,0-3.3-.7-4.6-2-1.3-1.3-1.9-2.8-1.8-4.6,0-1.8.7-3.3,2-4.6,1.3-1.2,2.8-1.9,4.6-1.8,1.8,0,3.3.7,4.6,2ZM1226.9,583c-.8-.8-1.7-1.2-2.8-1.2-1.1,0-2,.4-2.8,1.1-.8.8-1.2,1.7-1.2,2.8,0,1.1.4,2,1.1,2.8.8.8,1.7,1.2,2.8,1.2s2-.4,2.8-1.1c.8-.8,1.2-1.7,1.2-2.8s-.4-2-1.1-2.8ZM1292.3,291.4l28.4,7.7-5.5,20.4-3.5-.9,4.5-16.7-8.7-2.3-4.2,15.6-3.3-.9,4.2-15.6-9.5-2.6-4.7,17.3-3.5-.9,5.7-21ZM498.9,94.2l-30.4-.2,1-3.8,19.7.7c2.1,0,4.1.2,6.1.4-2.8-1.5-4.5-2.4-4.9-2.7l-17.7-10.6,1.2-4.5,15.4-.2c3.8,0,7.4.1,10.6.5-1.7-.8-3.6-1.9-5.8-3.1l-17-9.4,1-3.8,26.3,15.5-1,3.6h-23.2c-1.9.1-3.1.1-3.6,0,1.2.6,2.3,1.2,3.1,1.7l20,11.8-1,3.8ZM1131.7,42.6l17.5-10.1,1.4,2.4-8.5,17.1,13.8-7.9,1.3,2.2-17.5,10.1-1.4-2.4,8.5-17.1-13.8,7.9-1.3-2.2ZM1141.6,59.7l17.5-10.1,7.3,12.7-2.1,1.2-5.9-10.4-5.4,3.1,5.6,9.7-2.1,1.2-5.6-9.7-6,3.4,6.2,10.8-2.1,1.2-7.5-13.1ZM650.9,351.6l-1.4-2.1c.8-.6,1.4-1.3,1.7-2,.3-.7.5-1.6.4-2.5-.1-1-.5-2-1-3-.5-.9-1.1-1.6-1.7-2.1-.7-.5-1.3-.8-2-.9-.6,0-1.2,0-1.8.4-.6.3-.9.8-1.2,1.3-.2.6-.3,1.3-.1,2.2,0,.6.4,1.8.9,3.6.5,1.8.8,3.2.8,4,0,1.1-.1,2-.6,2.8-.4.8-1,1.4-1.8,1.9-.9.5-1.9.7-2.9.7-1.1,0-2.1-.5-3-1.2-1-.7-1.8-1.7-2.4-2.9-.7-1.3-1.2-2.6-1.3-3.8-.2-1.2,0-2.4.5-3.4.5-1,1.3-1.8,2.3-2.4l1.4,2.1c-1,.8-1.6,1.6-1.8,2.7-.2,1,.1,2.2.9,3.5.8,1.4,1.7,2.3,2.5,2.6.9.3,1.7.3,2.4-.1.6-.4,1-.9,1.2-1.6.2-.7-.1-2.1-.8-4.2-.7-2.1-1-3.6-1.1-4.5-.1-1.3,0-2.4.5-3.3.4-.9,1.1-1.6,2.1-2.2.9-.5,2-.8,3.1-.7,1.1,0,2.2.5,3.2,1.2,1,.7,1.9,1.7,2.6,3,.9,1.6,1.4,3.1,1.6,4.4.2,1.3,0,2.6-.6,3.7-.6,1.1-1.4,2.1-2.6,2.8ZM645.3,328.7l-14.9,14.7-1.4-2.4,10-9.3c1-1,2.1-1.9,3.2-2.8-2.1.6-3.4,1-3.7,1.1l-13.8,3.5-1.6-2.8,7.4-7.6c1.8-1.9,3.7-3.5,5.4-4.9-1.2.4-2.7.9-4.3,1.3l-12.9,3.7-1.3-2.3,20.3-5.3,1.3,2.2-11.2,11.4c-.9,1-1.5,1.5-1.7,1.7.9-.3,1.7-.5,2.4-.7l15.5-3.9,1.4,2.4ZM742.3-43.3l-10.1-17.5,2.4-1.4,17.1,8.5-7.9-13.8,2.2-1.3,10.1,17.5-2.4,1.4-17.1-8.5,7.9,13.8-2.2,1.3ZM762.5-54.8l-14.7-14.9,2.4-1.4,9.3,10c1,1,1.9,2.1,2.8,3.2-.6-2.1-1-3.4-1.1-3.7l-3.5-13.8,2.8-1.6,7.6,7.4c1.9,1.8,3.5,3.6,4.9,5.4-.4-1.2-.9-2.7-1.3-4.3l-3.7-12.9,2.3-1.3,5.3,20.3-2.2,1.3-11.4-11.2c-1-.9-1.5-1.5-1.7-1.7.3.9.5,1.7.7,2.4l3.9,15.5-2.4,1.4ZM1052.8,437.8l-2.1,1.4c-.6-.8-1.3-1.4-2-1.7-.7-.3-1.6-.5-2.5-.4-1,.1-2,.5-3,1-.9.5-1.6,1.1-2.1,1.7-.5.7-.8,1.3-.9,2,0,.6,0,1.2.4,1.8.3.6.8.9,1.3,1.2.6.2,1.3.3,2.2.1.6,0,1.8-.4,3.6-.9,1.8-.5,3.2-.8,4-.8,1.1,0,2,.1,2.8.6.8.4,1.4,1,1.9,1.8.5.9.7,1.9.7,2.9,0,1.1-.5,2.1-1.2,3-.7,1-1.7,1.8-2.9,2.4-1.3.7-2.6,1.2-3.8,1.3-1.2.2-2.4,0-3.4-.5-1-.5-1.8-1.3-2.4-2.3l2.1-1.4c.8,1,1.6,1.6,2.7,1.8,1,.2,2.2-.1,3.5-.9,1.4-.8,2.3-1.7,2.6-2.5.3-.9.3-1.7-.1-2.4-.4-.6-.9-1-1.6-1.2-.7-.2-2.1.1-4.2.8-2.1.7-3.6,1-4.5,1.1-1.3.1-2.4,0-3.3-.5-.9-.4-1.6-1.1-2.2-2.1-.5-.9-.8-2-.7-3.1,0-1.1.5-2.2,1.2-3.2.7-1,1.7-1.9,3-2.6,1.6-.9,3.1-1.4,4.4-1.6,1.3-.2,2.6,0,3.7.6,1.1.6,2.1,1.4,2.8,2.6ZM1033,441.6l10.1,17.5-12.7,7.3-1.2-2.1,10.4-5.9-3.1-5.4-9.7,5.6-1.2-2.1,9.7-5.6-3.4-6-10.8,6.2-1.2-2.1,13.1-7.5ZM1274,296.5l-184.3-86.3-95.7-44.9,13-10.9,87.1-72.6,10.2-8.5-134.3,48.5,9.3-103.2,18.3-202L911.6.2l-44.7,95.3-10.9-13.1L783.4-4.7l-8.5-10.2,43.1,119.1,5.4,15-104.7-9.6-203.7-18.7,185.3,86.6,95.2,44.5-12.6,10.5-98.3,81.6,12.5-4.5,107.6-39.1,16.2-5.9-28.7,310.8,86.7-185.8,44.7-95.6,10.4,12.5,81.7,98.2-4.5-12.4-39.1-107.7-5.9-16.3,105.2,9.6,202.6,18.5ZM1088.4,213.1l159.5,74.7-346.4-93.8,32.4-9.3,30.2-8.6,25.3-7.2,3-.9,95.9,45ZM968.9,125.7l114.9-41.5-177.7,102,19.1-18.5,22.5-21.7,20.9-20.1h.3ZM914.5,1.6l74.5-159-81.8,302-.3,1.1-11.4,42.3-9.6-33.9-8.2-28.8-7.2-25.3-.8-2.9L914.5,1.6ZM821,103.2l-35.2-97.4,102,177.8-19.4-20.1-20.8-21.5-20.1-20.8-.2-.5-6.3-17.4ZM701.7,174.6l-160.4-74.9,348.3,94.3-33.9,9.7-29.7,8.4h0s-27.5,7.8-27.5,7.8l-96.9-45.3ZM803.7,267.5l-90.2,32.8,112.7-64.7-.7-1.3h0s0,0,0,0l.8,1.4,59.1-33.9-20.2,19.5-20.9,20.3h0s-18.9,18.2-18.9,18.2l-2.9,1.1-18.6,6.7ZM876,388.3l-75.1,160.8,94.6-349.2,9.3,32.5,8.6,30.3,8.1,28.4-45.5,97.3ZM969.1,285.8l32.8,90.4-64.7-112.8-33.9-59.1,18.6,19.3,21.8,22.6,17.7,18.3,1,2.8,6.8,18.6Z"/>
  <rect class="st0" x="-54.6" y="-594.4" width="1705.4" height="594.4"/>
</svg>