<svg width="1545" height="634" viewBox="0 0 1545 634" fill="none" xmlns="http://www.w3.org/2000/svg">
<path d="M689.182 240.641C683.934 243.277 681.443 248.02 681.443 254.742V394.691C681.443 411.822 678.295 427.504 671.868 441.472C665.439 455.441 656.914 467.433 645.894 477.317C635.008 487.201 622.153 494.975 607.461 500.247C592.64 505.649 577.16 508.285 560.633 508.285C547.254 508.285 533.087 506.572 518.134 503.014C503.179 499.455 489.406 494.053 476.945 486.805C457.531 475.604 448.35 462.821 445.726 459.262C441.397 453.333 439.299 448.457 438.643 446.876C435.888 440.287 434.969 435.016 433.788 427.504C432.871 421.706 432.084 413.931 431.821 404.707V255.137C431.821 246.703 429.723 241.695 425.525 239.982C421.328 238.269 417.261 237.347 413.195 236.952C409.129 236.293 405.718 235.766 402.833 235.371C399.946 234.974 398.242 232.998 397.585 229.308C396.929 226.014 398.897 224.301 403.62 224.301H419.228C446.776 224.301 474.452 225.355 502.261 227.332C505.278 227.727 506.852 229.176 506.852 231.944C506.852 234.315 505.278 235.634 502.261 236.028C495.571 236.688 489.799 238.138 485.209 240.378C480.487 242.618 478.126 247.363 478.126 254.742C476.945 335.654 477.339 395.218 477.6 413.932C477.6 418.675 477.994 432.38 484.684 445.031C489.406 453.992 495.571 461.503 503.311 467.565C511.05 473.627 519.838 478.239 529.676 481.27C539.514 484.302 549.877 485.751 560.633 485.751C571.389 485.751 581.883 484.169 592.114 481.006C602.345 477.844 611.396 473.1 619.268 466.906C627.138 460.713 633.434 453.069 638.156 443.844C642.878 434.752 645.24 424.078 645.24 411.954V373.079C645.24 359.901 645.107 346.856 644.714 333.678C644.32 320.895 644.19 307.849 644.19 294.803V255.401C644.19 251.316 643.665 248.152 642.485 245.78C641.304 243.409 639.861 241.695 638.156 240.51C636.45 239.324 634.483 238.533 632.384 238.269C630.154 237.874 628.056 237.611 626.088 237.215C622.416 236.82 619.005 236.425 615.725 235.898C612.577 235.371 610.609 233.261 609.954 229.572C609.298 226.277 611.265 224.564 615.988 224.564C631.073 224.564 646.027 224.696 660.717 225.092C675.54 225.487 690.232 226.146 704.923 227.068C706.89 226.805 708.858 227.727 709.645 229.44C710.563 231.548 709.251 233.525 709.121 233.658C707.808 235.501 705.84 235.634 705.447 235.634C699.676 236.293 694.298 238.006 689.051 240.641H689.182Z" fill="#214B7F"/>
<path d="M728.532 507.227C725.384 506.832 723.942 505.251 724.204 502.352C724.336 499.452 726.04 498.002 729.058 498.002C738.633 497.607 745.06 494.576 748.077 488.909C751.225 483.243 752.669 475.731 752.669 466.376V253.948C752.669 248.017 751.094 244.196 747.814 242.351C744.535 240.506 740.994 239.189 737.189 238.53C732.599 237.738 730.369 236.949 728.664 236.42C722.499 234.707 721.055 233.653 720.138 232.863C719.481 232.204 716.99 229.832 717.514 227.724C718.17 225.614 721.318 224.56 723.679 224.56C726.827 224.56 730.763 224.56 735.747 224.825C740.731 224.955 746.372 225.087 752.538 225.087C762.506 225.484 773.394 225.747 785.067 225.879C796.742 226.011 808.547 226.141 820.615 226.141C837.799 226.141 853.409 225.747 867.576 225.087C881.611 224.428 891.056 223.242 895.908 221.529C898.27 220.871 900.369 221.002 902.074 222.057C903.779 223.111 904.435 224.428 904.172 226.141C903.517 232.731 902.468 238.792 901.024 244.328C899.713 249.862 898.27 255.397 896.958 260.932C896.302 263.303 895.778 265.545 895.384 267.653C894.991 269.761 894.465 271.738 893.81 273.846C893.154 276.218 891.056 277.536 887.645 277.536C884.234 277.536 882.266 276.218 882.005 273.451C881.611 267.521 880.299 262.908 877.938 259.482C875.577 256.056 872.429 253.421 868.625 251.443C858.656 246.436 847.506 246.831 836.619 246.831C830.716 246.831 836.619 246.831 800.022 247.49C800.284 258.823 800.022 342.503 800.022 346.456H861.936C868.493 346.193 872.691 344.216 875.315 342.635C880.299 339.472 884.366 335.65 884.366 335.65C886.727 333.41 888.038 331.829 890.793 331.038C893.154 330.379 895.121 330.643 896.696 331.829C898.27 333.015 898.795 334.464 898.532 336.177C897.876 340.658 891.449 389.284 890.793 394.161C890.399 395.874 889.219 397.06 887.12 397.85C885.021 398.509 883.185 398.246 881.479 396.796C879.25 394.424 874.79 384.541 871.904 379.138C870.461 376.37 869.806 374.92 868.493 373.998C866.789 372.68 863.378 371.494 858.131 370.572C853.016 369.65 847.244 369.123 840.817 368.727C834.388 368.332 828.224 368.2 822.059 368.2H799.89V468.616C805.399 476.258 813.139 481.794 823.109 485.22C833.077 488.647 842.522 490.36 851.442 490.36C862.46 490.36 872.561 487.723 881.873 482.321C891.186 476.918 897.352 468.22 900.369 456.228C900.763 455.174 901.55 454.384 902.992 453.857C904.304 453.329 905.746 453.198 907.19 453.329C908.501 453.461 909.814 453.988 910.994 454.911C912.175 455.833 912.568 456.755 912.305 457.81C909.288 472.569 903.911 499.979 903.385 502.087C903.124 503.273 902.468 505.646 901.418 506.173C896.828 508.545 892.105 508.545 873.872 508.545C873.872 508.545 740.207 508.15 728.271 507.491L728.532 507.227Z" fill="#214B7F"/>
<path d="M1081.26 463.079C1073.52 472.831 1064.07 481.002 1052.79 487.722C1041.51 494.444 1029.18 499.583 1016.07 503.009C1002.95 506.567 991.012 508.28 980.255 508.28C974.877 508.28 969.106 507.753 962.81 506.831C956.513 505.777 950.611 503.931 945.102 501.296C939.591 498.66 935.001 494.971 931.066 490.489C927.261 486.009 925.294 480.211 925.294 473.227C925.294 469.932 925.687 466.506 926.605 462.949C927.392 459.39 928.573 455.832 929.885 452.142C931.59 448.452 932.508 443.84 932.901 438.042C932.901 436.723 933.558 435.802 934.869 435.275C936.182 434.748 937.493 434.483 938.936 434.483C940.378 434.483 941.56 434.88 942.741 435.537C943.921 436.196 944.445 437.25 944.445 438.569V444.631C943.789 451.615 944.97 457.809 948.25 462.949C951.398 468.088 955.726 472.436 960.973 475.994C966.351 479.553 972.254 482.056 978.681 483.769C985.24 485.482 991.536 486.273 997.963 486.273C1003.34 486.273 1009.24 485.35 1015.67 483.506C1022.23 481.661 1028.26 479.024 1033.9 475.73C1039.54 472.436 1044.27 468.219 1047.94 463.211C1051.61 458.204 1053.45 452.274 1053.45 445.685C1053.45 439.623 1051.74 433.693 1048.2 427.631C1044.66 421.57 1040.2 415.376 1034.69 409.051C1029.18 402.725 1023.02 396.532 1016.2 390.469C1009.37 384.408 1002.42 378.345 995.471 372.416C987.47 365.696 979.6 358.842 971.728 351.859C963.858 344.874 956.775 337.757 950.479 330.51C944.183 323.263 939.067 316.146 935.262 308.898C931.459 301.65 929.492 294.27 929.492 286.496C929.492 274.109 933.427 263.698 941.297 255.395C949.167 247.094 958.743 240.372 970.024 235.365C981.305 230.358 993.241 226.799 1005.83 224.559C1020.13 222.055 1031.41 221.397 1038.1 221.265C1053.58 221.133 1079.16 220.87 1083.88 232.335C1084.67 234.179 1084.67 235.892 1084.67 237.078V244.854C1084.67 251.574 1084.41 258.295 1083.88 265.147C1083.36 272 1081.13 277.666 1077.06 282.016C1075.09 283.729 1072.86 284.256 1070.37 283.465C1067.88 282.805 1066.57 281.224 1066.57 278.984C1066.57 272.659 1065.12 267.124 1062.37 262.38C1059.48 257.636 1055.81 253.682 1051.35 250.256C1046.89 246.962 1041.91 244.458 1036.4 242.745C1030.89 241.031 1025.25 240.242 1019.61 240.242C1013.97 240.242 1008.33 241.163 1002.82 243.009C997.308 244.854 992.454 247.489 988.125 250.783C983.797 254.079 980.255 258.295 977.631 263.302C975.009 268.311 973.565 273.977 973.565 280.433C973.565 286.101 975.139 291.767 978.287 297.566C981.436 303.232 985.633 308.898 990.749 314.433C995.865 319.967 1001.64 325.238 1008.06 330.246C1014.36 335.254 1020.53 340.13 1026.56 344.874C1034.17 350.935 1042.04 356.998 1050.04 363.191C1058.04 369.385 1065.26 375.974 1071.55 383.09C1077.85 390.074 1083.09 397.454 1087.03 405.228C1091.1 412.872 1093.06 421.175 1093.06 429.871C1093.06 442.654 1089.26 453.855 1081.52 463.476L1081.26 463.079Z" fill="#214B7F"/>
<path d="M1355.02 279.248C1354.36 281.619 1352.26 282.805 1348.85 282.805C1345.83 282.805 1343.99 281.619 1343.21 279.248C1340.85 267.255 1335.34 259.745 1326.68 256.449C1315.66 252.364 1303.86 251.179 1292.31 251.706C1278.8 252.233 1265.29 252.628 1251.65 253.023C1251.39 253.023 1251.65 283.464 1251.65 285.31V340.394C1251.65 378.609 1251.65 416.693 1251.65 454.91C1251.65 464.792 1251.26 474.544 1253.36 484.296C1254.01 487.591 1254.93 489.831 1256.9 491.545C1258.6 492.994 1260.57 493.653 1264.64 494.18C1267.52 494.575 1270.01 494.839 1271.98 495.234C1275.65 495.629 1279.2 496.157 1282.48 496.815C1285.75 497.474 1287.98 499.187 1289.3 501.954C1290.35 503.667 1290.35 505.25 1289.3 506.566C1288.25 507.885 1286.41 508.544 1283.66 508.544C1266.34 508.544 1249.16 508.412 1231.97 508.017C1214.79 507.622 1197.61 507.225 1180.29 506.436C1177.28 506.436 1175.57 505.117 1175.44 502.35C1175.31 499.583 1176.75 497.87 1179.77 497.211C1184.88 496.552 1189.08 495.761 1192.49 494.971C1195.9 494.18 1198.39 492.599 1200.1 490.621C1201.8 488.645 1202.98 485.746 1203.64 482.188C1204.3 478.629 1204.69 473.754 1204.69 467.56V252.101H1140.02C1132.54 252.101 1125.72 254.473 1119.43 259.217C1113.13 263.961 1108.15 269.759 1104.34 276.612C1103.03 278.72 1100.93 279.511 1098.18 279.116C1095.42 278.72 1093.72 277.535 1093.06 275.558C1092.67 274.504 1092.54 272.264 1092.54 268.968C1092.54 261.326 1094.5 253.682 1096.87 246.435C1099.1 239.45 1101.06 232.203 1103.82 225.481C1104.47 223.768 1105.65 222.714 1107.36 222.187C1110.64 221.133 1113.53 223.11 1116.54 224.164C1120.21 225.481 1124.02 226.537 1127.95 227.458C1145.01 231.28 1162.85 230.226 1180.29 230.226H1298.35C1312.51 230.226 1328.12 232.334 1341.63 227.591C1342.16 227.326 1342.82 227.194 1343.34 226.931C1348.59 225.218 1358.95 221.792 1359.6 230.094C1360.92 245.908 1359.34 263.961 1355.02 279.379V279.248Z" fill="#214B7F"/>
<path d="M258.933 482.454C258.146 478.237 263.392 473.626 270.869 465.323C277.165 458.471 283.461 451.618 289.758 444.766C383.021 496.554 464.611 526.073 523.376 543.6C590.93 563.762 639.727 575.227 688.785 584.32C723.677 590.777 772.735 598.552 829.27 604.745C884.231 610.675 946.145 616.738 1018.29 613.311C1057.25 611.467 1124.02 607.908 1204.16 584.584C1204.16 584.584 1294.54 558.228 1360 514.214C1280.11 567.056 1218.59 588.8 1218.59 588.8C1028.39 650.341 822.45 641.776 627.658 604.482C546.463 588.932 466.709 567.188 389.055 539.384C349.704 525.282 311.007 509.732 272.967 492.601C263.655 488.385 259.457 485.486 258.933 482.191V482.454Z" fill="#214B7F"/>
<path d="M194.135 508.413C156.226 509.599 127.368 499.453 114.514 494.181C78.8347 479.685 57.4535 458.469 53.256 454.12C36.3348 436.989 23.2175 416.3 13.9043 392.316C4.59104 368.332 0 341.976 0 313.248C0 284.52 5.11573 259.877 15.4784 236.29C25.1851 213.755 36.9906 197.942 43.6805 189.771C47.878 184.632 58.7653 171.981 75.9489 158.935C94.1819 144.966 110.972 137.322 120.023 133.501C127.106 130.602 156.489 118.742 197.153 118.742C223.649 118.742 248.703 123.223 272.315 132.052C295.926 140.881 316.388 153.4 333.834 169.609C351.28 185.818 365.053 205.057 375.154 227.592C385.254 250.126 390.37 275.033 390.37 302.31C390.37 334.333 383.417 364.774 369.512 393.897C360.724 412.082 351.28 424.733 347.214 430.005C343.541 434.749 330.292 451.353 309.699 466.903C258.541 505.646 201.35 508.15 194.266 508.413H194.135ZM323.865 244.327C317.7 224.956 308.649 207.957 296.713 193.33C284.775 178.702 270.215 166.974 252.901 158.012C235.586 149.184 215.91 144.703 193.611 144.703C172.755 144.703 153.603 147.997 136.42 154.718C119.105 161.438 104.282 170.927 91.8208 183.182C79.3594 195.57 69.7838 210.329 62.9628 227.723C56.1419 245.118 52.7314 264.358 52.7314 285.706C52.7314 310.086 56.7978 333.411 64.9304 355.681C73.063 378.084 84.4752 397.982 99.0353 415.641C103.757 421.439 108.873 426.843 114.251 431.982C120.023 437.384 132.484 448.717 151.242 459.655C160.424 464.926 166.327 468.352 175.247 471.384C183.248 474.151 200.431 479.817 221.55 476.259C242.669 472.701 256.705 461.632 266.804 453.593C280.053 443.183 289.236 431.323 293.302 426.051C296.713 421.703 299.861 417.091 302.877 412.346C312.716 396.796 320.193 380.06 325.308 361.875C330.424 343.689 333.047 324.845 333.047 305.078C333.047 283.73 330.03 263.436 323.865 244.064V244.327Z" fill="#214B7F"/>
<path d="M689.182 240.641C683.934 243.277 681.443 248.02 681.443 254.742V394.691C681.443 411.822 678.295 427.504 671.868 441.472C665.439 455.441 656.914 467.433 645.894 477.317C635.008 487.201 622.153 494.975 607.461 500.247C592.64 505.649 577.16 508.285 560.633 508.285C547.254 508.285 533.087 506.572 518.134 503.014C503.179 499.455 489.406 494.053 476.945 486.805C457.531 475.604 448.35 462.821 445.726 459.262C441.397 453.333 439.299 448.457 438.643 446.876C435.888 440.287 434.969 435.016 433.788 427.504C432.871 421.706 432.084 413.931 431.821 404.707V255.137C431.821 246.703 429.723 241.695 425.525 239.982C421.328 238.269 417.261 237.347 413.195 236.952C409.129 236.293 405.718 235.766 402.833 235.371C399.946 234.974 398.242 232.998 397.585 229.308C396.929 226.014 398.897 224.301 403.62 224.301H419.228C446.776 224.301 474.452 225.355 502.261 227.332C505.278 227.727 506.852 229.176 506.852 231.944C506.852 234.315 505.278 235.634 502.261 236.028C495.571 236.688 489.799 238.138 485.209 240.378C480.487 242.618 478.126 247.363 478.126 254.742C476.945 335.654 477.339 395.218 477.6 413.932C477.6 418.675 477.994 432.38 484.684 445.031C489.406 453.992 495.571 461.503 503.311 467.565C511.05 473.627 519.838 478.239 529.676 481.27C539.514 484.302 549.877 485.751 560.633 485.751C571.389 485.751 581.883 484.169 592.114 481.006C602.345 477.844 611.396 473.1 619.268 466.906C627.138 460.713 633.434 453.069 638.156 443.844C642.878 434.752 645.24 424.078 645.24 411.954V373.079C645.24 359.901 645.107 346.856 644.714 333.678C644.32 320.895 644.19 307.849 644.19 294.803V255.401C644.19 251.316 643.665 248.152 642.485 245.78C641.304 243.409 639.861 241.695 638.156 240.51C636.45 239.324 634.483 238.533 632.384 238.269C630.154 237.874 628.056 237.611 626.088 237.215C622.416 236.82 619.005 236.425 615.725 235.898C612.577 235.371 610.609 233.261 609.954 229.572C609.298 226.277 611.265 224.564 615.988 224.564C631.073 224.564 646.027 224.696 660.717 225.092C675.54 225.487 690.232 226.146 704.923 227.068C706.89 226.805 708.858 227.727 709.645 229.44C710.563 231.548 709.251 233.525 709.121 233.658C707.808 235.501 705.84 235.634 705.447 235.634C699.676 236.293 694.298 238.006 689.051 240.641H689.182Z" fill="#214B7F"/>
<path d="M728.532 507.227C725.384 506.832 723.942 505.251 724.204 502.352C724.336 499.452 726.04 498.002 729.058 498.002C738.633 497.607 745.06 494.576 748.077 488.909C751.225 483.243 752.669 475.731 752.669 466.376V253.948C752.669 248.017 751.094 244.196 747.814 242.351C744.535 240.506 740.994 239.189 737.189 238.53C732.599 237.738 730.369 236.949 728.664 236.42C722.499 234.707 721.055 233.653 720.138 232.863C719.481 232.204 716.99 229.832 717.514 227.724C718.17 225.614 721.318 224.56 723.679 224.56C726.827 224.56 730.763 224.56 735.747 224.825C740.731 224.955 746.372 225.087 752.538 225.087C762.506 225.484 773.394 225.747 785.067 225.879C796.742 226.011 808.547 226.141 820.615 226.141C837.799 226.141 853.409 225.747 867.576 225.087C881.611 224.428 891.056 223.242 895.908 221.529C898.27 220.871 900.369 221.002 902.074 222.057C903.779 223.111 904.435 224.428 904.172 226.141C903.517 232.731 902.468 238.792 901.024 244.328C899.713 249.862 898.27 255.397 896.958 260.932C896.302 263.303 895.778 265.545 895.384 267.653C894.991 269.761 894.465 271.738 893.81 273.846C893.154 276.218 891.056 277.536 887.645 277.536C884.234 277.536 882.266 276.218 882.005 273.451C881.611 267.521 880.299 262.908 877.938 259.482C875.577 256.056 872.429 253.421 868.625 251.443C858.656 246.436 847.506 246.831 836.619 246.831C830.716 246.831 836.619 246.831 800.022 247.49C800.284 258.823 800.022 342.503 800.022 346.456H861.936C868.493 346.193 872.691 344.216 875.315 342.635C880.299 339.472 884.366 335.65 884.366 335.65C886.727 333.41 888.038 331.829 890.793 331.038C893.154 330.379 895.121 330.643 896.696 331.829C898.27 333.015 898.795 334.464 898.532 336.177C897.876 340.658 891.449 389.284 890.793 394.161C890.399 395.874 889.219 397.06 887.12 397.85C885.021 398.509 883.185 398.246 881.479 396.796C879.25 394.424 874.79 384.541 871.904 379.138C870.461 376.37 869.806 374.92 868.493 373.998C866.789 372.68 863.378 371.494 858.131 370.572C853.016 369.65 847.244 369.123 840.817 368.727C834.388 368.332 828.224 368.2 822.059 368.2H799.89V468.616C805.399 476.258 813.139 481.794 823.109 485.22C833.077 488.647 842.522 490.36 851.442 490.36C862.46 490.36 872.561 487.723 881.873 482.321C891.186 476.918 897.352 468.22 900.369 456.228C900.763 455.174 901.55 454.384 902.992 453.857C904.304 453.329 905.746 453.198 907.19 453.329C908.501 453.461 909.814 453.988 910.994 454.911C912.175 455.833 912.568 456.755 912.305 457.81C909.288 472.569 903.911 499.979 903.385 502.087C903.124 503.273 902.468 505.646 901.418 506.173C896.828 508.545 892.105 508.545 873.872 508.545C873.872 508.545 740.207 508.15 728.271 507.491L728.532 507.227Z" fill="#214B7F"/>
<path d="M1081.26 463.079C1073.52 472.831 1064.07 481.002 1052.79 487.722C1041.51 494.444 1029.18 499.583 1016.07 503.009C1002.95 506.567 991.012 508.28 980.255 508.28C974.877 508.28 969.106 507.753 962.81 506.831C956.513 505.777 950.611 503.931 945.102 501.296C939.591 498.66 935.001 494.971 931.066 490.489C927.261 486.009 925.294 480.211 925.294 473.227C925.294 469.932 925.687 466.506 926.605 462.949C927.392 459.39 928.573 455.832 929.885 452.142C931.59 448.452 932.508 443.84 932.901 438.042C932.901 436.723 933.558 435.802 934.869 435.275C936.182 434.748 937.493 434.483 938.936 434.483C940.378 434.483 941.56 434.88 942.741 435.537C943.921 436.196 944.445 437.25 944.445 438.569V444.631C943.789 451.615 944.97 457.809 948.25 462.949C951.398 468.088 955.726 472.436 960.973 475.994C966.351 479.553 972.254 482.056 978.681 483.769C985.24 485.482 991.536 486.273 997.963 486.273C1003.34 486.273 1009.24 485.35 1015.67 483.506C1022.23 481.661 1028.26 479.024 1033.9 475.73C1039.54 472.436 1044.27 468.219 1047.94 463.211C1051.61 458.204 1053.45 452.274 1053.45 445.685C1053.45 439.623 1051.74 433.693 1048.2 427.631C1044.66 421.57 1040.2 415.376 1034.69 409.051C1029.18 402.725 1023.02 396.532 1016.2 390.469C1009.37 384.408 1002.42 378.345 995.471 372.416C987.47 365.696 979.6 358.842 971.728 351.859C963.858 344.874 956.775 337.757 950.479 330.51C944.183 323.263 939.067 316.146 935.262 308.898C931.459 301.65 929.492 294.27 929.492 286.496C929.492 274.109 933.427 263.698 941.297 255.395C949.167 247.094 958.743 240.372 970.024 235.365C981.305 230.358 993.241 226.799 1005.83 224.559C1020.13 222.055 1031.41 221.397 1038.1 221.265C1053.58 221.133 1079.16 220.87 1083.88 232.335C1084.67 234.179 1084.67 235.892 1084.67 237.078V244.854C1084.67 251.574 1084.41 258.295 1083.88 265.147C1083.36 272 1081.13 277.666 1077.06 282.016C1075.09 283.729 1072.86 284.256 1070.37 283.465C1067.88 282.805 1066.57 281.224 1066.57 278.984C1066.57 272.659 1065.12 267.124 1062.37 262.38C1059.48 257.636 1055.81 253.682 1051.35 250.256C1046.89 246.962 1041.91 244.458 1036.4 242.745C1030.89 241.031 1025.25 240.242 1019.61 240.242C1013.97 240.242 1008.33 241.163 1002.82 243.009C997.308 244.854 992.454 247.489 988.125 250.783C983.797 254.079 980.255 258.295 977.631 263.302C975.009 268.311 973.565 273.977 973.565 280.433C973.565 286.101 975.139 291.767 978.287 297.566C981.436 303.232 985.633 308.898 990.749 314.433C995.865 319.967 1001.64 325.238 1008.06 330.246C1014.36 335.254 1020.53 340.13 1026.56 344.874C1034.17 350.935 1042.04 356.998 1050.04 363.191C1058.04 369.385 1065.26 375.974 1071.55 383.09C1077.85 390.074 1083.09 397.454 1087.03 405.228C1091.1 412.872 1093.06 421.175 1093.06 429.871C1093.06 442.654 1089.26 453.855 1081.52 463.476L1081.26 463.079Z" fill="#214B7F"/>
<path d="M1355.02 279.248C1354.36 281.619 1352.26 282.805 1348.85 282.805C1345.83 282.805 1343.99 281.619 1343.21 279.248C1340.85 267.255 1335.34 259.745 1326.68 256.449C1315.66 252.364 1303.86 251.179 1292.31 251.706C1278.8 252.233 1265.29 252.628 1251.65 253.023C1251.39 253.023 1251.65 283.464 1251.65 285.31V340.394C1251.65 378.609 1251.65 416.693 1251.65 454.91C1251.65 464.792 1251.26 474.544 1253.36 484.296C1254.01 487.591 1254.93 489.831 1256.9 491.545C1258.6 492.994 1260.57 493.653 1264.64 494.18C1267.52 494.575 1270.01 494.839 1271.98 495.234C1275.65 495.629 1279.2 496.157 1282.48 496.815C1285.75 497.474 1287.98 499.187 1289.3 501.954C1290.35 503.667 1290.35 505.25 1289.3 506.566C1288.25 507.885 1286.41 508.544 1283.66 508.544C1266.34 508.544 1249.16 508.412 1231.97 508.017C1214.79 507.622 1197.61 507.225 1180.29 506.436C1177.28 506.436 1175.57 505.117 1175.44 502.35C1175.31 499.583 1176.75 497.87 1179.77 497.211C1184.88 496.552 1189.08 495.761 1192.49 494.971C1195.9 494.18 1198.39 492.599 1200.1 490.621C1201.8 488.645 1202.98 485.746 1203.64 482.188C1204.3 478.629 1204.69 473.754 1204.69 467.56V252.101H1140.02C1132.54 252.101 1125.72 254.473 1119.43 259.217C1113.13 263.961 1108.15 269.759 1104.34 276.612C1103.03 278.72 1100.93 279.511 1098.18 279.116C1095.42 278.72 1093.72 277.535 1093.06 275.558C1092.67 274.504 1092.54 272.264 1092.54 268.968C1092.54 261.326 1094.5 253.682 1096.87 246.435C1099.1 239.45 1101.06 232.203 1103.82 225.481C1104.47 223.768 1105.65 222.714 1107.36 222.187C1110.64 221.133 1113.53 223.11 1116.54 224.164C1120.21 225.481 1124.02 226.537 1127.95 227.458C1145.01 231.28 1162.85 230.226 1180.29 230.226H1298.35C1312.51 230.226 1328.12 232.334 1341.63 227.591C1342.16 227.326 1342.82 227.194 1343.34 226.931C1348.59 225.218 1358.95 221.792 1359.6 230.094C1360.92 245.908 1359.34 263.961 1355.02 279.379V279.248Z" fill="#214B7F"/>
<path d="M258.933 482.454C258.146 478.237 263.392 473.626 270.869 465.323C277.165 458.471 283.461 451.618 289.758 444.766C383.021 496.554 464.611 526.073 523.376 543.6C590.93 563.762 639.727 575.227 688.785 584.32C723.677 590.777 772.735 598.552 829.27 604.745C884.231 610.675 946.145 616.738 1018.29 613.311C1057.25 611.467 1124.02 607.908 1204.16 584.584C1204.16 584.584 1294.54 558.228 1360 514.214C1280.11 567.056 1218.59 588.8 1218.59 588.8C1028.39 650.341 822.45 641.776 627.658 604.482C546.463 588.932 466.709 567.188 389.055 539.384C349.704 525.282 311.007 509.732 272.967 492.601C263.655 488.385 259.457 485.486 258.933 482.191V482.454Z" fill="#214B7F"/>
<path d="M194.135 508.413C156.226 509.599 127.368 499.453 114.514 494.181C78.8347 479.685 57.4535 458.469 53.256 454.12C36.3348 436.989 23.2175 416.3 13.9043 392.316C4.59104 368.332 0 341.976 0 313.248C0 284.52 5.11573 259.877 15.4784 236.29C25.1851 213.755 36.9906 197.942 43.6805 189.771C47.878 184.632 58.7653 171.981 75.9489 158.935C94.1819 144.966 110.972 137.322 120.023 133.501C127.106 130.602 156.489 118.742 197.153 118.742C223.649 118.742 248.703 123.223 272.315 132.052C295.926 140.881 316.388 153.4 333.834 169.609C351.28 185.818 365.053 205.057 375.154 227.592C385.254 250.126 390.37 275.033 390.37 302.31C390.37 334.333 383.417 364.774 369.512 393.897C360.724 412.082 351.28 424.733 347.214 430.005C343.541 434.749 330.292 451.353 309.699 466.903C258.541 505.646 201.35 508.15 194.266 508.413H194.135ZM323.865 244.327C317.7 224.956 308.649 207.957 296.713 193.33C284.775 178.702 270.215 166.974 252.901 158.012C235.586 149.184 215.91 144.703 193.611 144.703C172.755 144.703 153.603 147.997 136.42 154.718C119.105 161.438 104.282 170.927 91.8208 183.182C79.3594 195.57 69.7838 210.329 62.9628 227.723C56.1419 245.118 52.7314 264.358 52.7314 285.706C52.7314 310.086 56.7978 333.411 64.9304 355.681C73.063 378.084 84.4752 397.982 99.0353 415.641C103.757 421.439 108.873 426.843 114.251 431.982C120.023 437.384 132.484 448.717 151.242 459.655C160.424 464.926 166.327 468.352 175.247 471.384C183.248 474.151 200.431 479.817 221.55 476.259C242.669 472.701 256.705 461.632 266.804 453.593C280.053 443.183 289.236 431.323 293.302 426.051C296.713 421.703 299.861 417.091 302.877 412.346C312.716 396.796 320.193 380.06 325.308 361.875C330.424 343.689 333.047 324.845 333.047 305.078C333.047 283.73 330.03 263.436 323.865 244.064V244.327Z" fill="#214B7F"/>
</svg>
